<?xml version="1.0" encoding="UTF-8"?>
<svg id="Layer_2" data-name="Layer 2" xmlns="http://www.w3.org/2000/svg" viewBox="0 0 2014 1104">
  <defs>
    <style>
      .cls-1 {
        fill: none;
        stroke: #c33;
        stroke-miterlimit: 10;
        stroke-width: 25px;
      }

      .cls-2 {
        fill: #121212;
      }

      .cls-3 {
        fill: #c33;
      }
    </style>
  </defs>
  <g>
    <polygon class="cls-1" points="1439.12 790.05 1428.87 784.23 1418.6 785.36 1408.31 784.3 1398.19 790.64 1387.94 789.99 1377.73 791.24 1367.35 785.88 1357.27 792.61 1346.96 789.96 1336.78 794.89 1326.48 790.92 1316.24 788.94 1305.97 791.14 1295.67 792.23 1285.36 792.7 1275.51 785.33 1265.28 785.48 1255.3 783.05 1245.18 782.21 1234.34 785.66 1224.06 784.56 1214.3 781 1203.58 781.14 1195.51 772.43 1185.82 769.43 1174.44 769.91 1165.81 763.93 1156.34 759.53 1149.31 751.52 1138.69 748.08 1134.46 737.49 1128.4 729.31 1120.02 722.76 1117.38 712.38 1109.75 704.78 1105.81 695.2 1108.61 683.57 1104.06 674.43 1104.01 664.2 1096.74 655.01 1097.32 644.65 1099.94 634.41 1100.58 624.22 1096.67 613.97 1098.76 603.69 1091.65 593.59 1093.59 583.31 1099.32 572.92 1092.26 562.86 1090.69 552.65 1097.74 542.26 1091.88 532.1 1093.17 521.83 1098.74 511.61 1092.95 501.31 1096.53 491.15 1098.77 481.03 1099.57 470.87 1095.03 460.28 1098.6 450.33 1095.66 439.62 1098.4 429.59 1099.99 419.39 1106.64 410.36 1109.92 400.75 1113.93 391.44 1112.35 380.04 1113.82 369.36 1122.72 362.25 1124.45 351.27 1136.05 346.86 1141.63 338.52 1145.54 328.12 1152.12 319.74 1165.1 320.16 1170.7 309.93 1182.56 310.96 1191.26 306.01 1200.01 300.41 1210.22 299.44 1219.81 295.73 1229.54 291.35 1240.21 295.42 1250.2 292.01 1260.43 295.47 1270.71 295.89 1280.97 294.49 1291.05 286.58 1301.41 292.14 1311.5 286.23 1321.75 286.41 1332.19 294.62 1342.33 289.97 1352.53 286.26 1362.81 288.58 1373.07 288.98 1383.24 293.44 1393.7 285.47 1403.85 289.14 1414.31 286.63 1424.17 292.69 1434.85 289.06 1444.24 296.85 1455.2 292.86 1463.82 302.52 1474.11 302.7 1485.96 298 1492.95 310.05 1502.59 312.82 1515.07 309.64 1522.72 317.47 1533.37 319.82 1540.43 327.89 1545.83 337.32 1555.27 342.09 1563.33 348.73 1565.31 359.9 1573.51 366.73 1575.89 376.9 1577.68 386.97 1585.51 394.98 1584.51 405.74 1586.14 415.65 1594.59 424.74 1593.6 435.23 1587.96 445.6 1590.94 455.79 1596.78 466 1590.03 476.32 1589.63 486.59 1597.93 496.63 1590.93 507.05 1592.86 517.24 1598.23 527.36 1590.75 537.76 1598.13 547.89 1595.26 558.17 1597.82 568.43 1596.63 578.69 1595.01 588.92 1592.6 599.07 1596.02 609.53 1594.88 619.77 1594.03 630.04 1586.93 639.47 1592.71 650.71 1583.36 659.42 1582.3 669.55 1582.29 680.08 1578.58 689.63 1576.95 699.96 1574.13 710.01 1565.33 717.08 1559.44 725.28 1555.94 735.17 1550.43 743.93 1545.72 753.93 1536.89 759.9 1529.11 767.15 1516.08 765.55 1507.79 771.32 1498.78 775.97 1488.79 777.92 1480.79 787.92 1469.53 784.55 1459.51 786.64 1449.43 789.01 1439.12 790.05"/>
    <polygon class="cls-3" points="1416.98 526.86 1405.67 523.44 1393.93 522.19 1396.56 530.73 1406.93 532.88 1412.15 541.41 1418.7 548.13 1421.13 539.07 1423.46 529.91 1416.98 526.86"/>
    <polygon class="cls-3" points="1390.9 479.42 1399.26 478.56 1408.1 475.85 1416.51 475.41 1420.92 483.46 1430.26 485.32 1436 476.14 1441.13 466.39 1442.88 455.53 1446.35 445.23 1445.24 455.09 1445.62 465.23 1445.77 474.9 1456.14 474.85 1465.74 480.67 1474.34 486.6 1476.98 476.47 1480.01 466.76 1486.49 458.99 1493.55 451.01 1498.79 441.4 1504.9 435.72 1511.97 430.25 1508.14 420.21 1510.79 409.89 1520.1 403.41 1526.34 393.78 1527.77 382.49 1526.32 371.41 1515.23 370.32 1504.58 372.72 1493.94 371.36 1483.29 372.89 1472.65 372.57 1462 371.51 1451.35 371 1440.69 371.15 1430.05 370.45 1419.41 371.48 1418.29 381.49 1413.11 390.44 1409.55 399.95 1405.98 409.46 1403.31 419.3 1398.86 428.49 1396.02 438.27 1393.85 448.27 1388.6 457.25 1386.32 467.2 1385.65 477.35 1390.9 479.42"/>
    <polygon class="cls-3" points="1526.66 523.71 1518.25 520.7 1511.02 516.03 1499.92 515.69 1494.43 524.96 1484.75 530.65 1486.34 541.43 1482.94 550.37 1475.31 557.01 1470.71 565.56 1462.88 571.7 1460.46 581.02 1470.25 584.03 1474.42 592.62 1479.4 600.15 1488.08 602.92 1494.2 612.6 1502.36 607.75 1512.78 604.49 1523.01 601.04 1531.15 593.89 1540.45 593.7 1549.03 591.45 1548.32 582.14 1537.32 582.74 1526.25 581.85 1526.28 572.42 1525.7 562.76 1524.99 553.09 1526.59 543.43 1525.1 533.73 1526.66 523.71"/>
    <polygon class="cls-3" points="1445.58 652.94 1455.07 646.67 1460.32 637.7 1450.36 631.64 1442.02 622.83 1431.62 623.91 1422.53 628.34 1425.29 635.83 1435.33 637.81 1445.41 636.74 1445.62 645.11 1445.58 652.94"/>
    <polygon class="cls-3" points="1508.26 677.79 1500.34 671.54 1490.37 671.45 1480.86 674.25 1471.49 678.03 1462.58 682.89 1454.2 688.61 1445.57 693.91 1456.13 693.13 1466.81 693.82 1477.5 693.95 1488.21 693.96 1498.91 694.46 1509.6 693.95 1520.3 693.38 1527.15 687.63 1518.21 681.75 1508.26 677.79"/>
    <polygon class="cls-3" points="1543.74 631.37 1534.48 631.68 1525.12 632.24 1516.52 636.03 1518.37 644.08 1525.73 649.86 1525.8 636.94 1537.32 636.82 1548.68 636.82 1543.74 631.37"/>
    <polygon class="cls-3" points="1508.91 643.35 1512.51 633.72 1521.39 628.54 1531.61 628.71 1541.67 625.58 1546.43 619.22 1549.83 609.34 1550.81 597.28 1539.69 598.75 1529.79 598.64 1524.18 605.98 1513.87 611.06 1503.48 614.51 1494.81 621.52 1491.24 615.24 1486.18 606.95 1476.95 606.57 1471.56 599.01 1468.14 591.03 1464.29 583.48 1455.54 583.99 1458.39 575.69 1462.4 568.15 1469.17 562.02 1473 553.67 1480.55 549.49 1482.45 535.65 1484.18 526.02 1490.58 520.02 1493.65 510.07 1498.36 509.98 1507.97 511.88 1518.19 513.13 1525.97 520.04 1525.87 508.81 1525.93 497.71 1529.27 486.53 1519.61 478.6 1511.04 487.35 1512.25 475.66 1517.23 465.61 1515.03 454.3 1520.77 444.82 1524.32 435.06 1523.3 424.48 1524.63 414.05 1525.41 404.46 1517.87 409.96 1509.03 417.4 1515.36 427.26 1513.51 437.64 1502.71 441.26 1498.78 452.66 1486.5 458.37 1483.92 468.96 1484.06 479.91 1479.85 489.49 1470.77 493.88 1464.5 486.41 1455.34 482.95 1445.37 477.29 1444.86 490.14 1446.94 500.38 1443.53 510.55 1448.79 521.08 1455.57 513.03 1464.74 508.3 1474.36 512.48 1466.87 519.76 1461.56 528.08 1454.14 534.73 1444.36 539 1444.52 550.38 1445.43 561.07 1445.73 571.72 1440.96 579.32 1431.24 581.06 1420.68 581.14 1409.61 583.77 1411.15 570.44 1418.87 560.59 1412.69 555.17 1409.23 544.19 1400.38 540.1 1393.8 532.85 1386.53 526.16 1387.39 516.94 1393.34 518.96 1402.17 520.35 1411.06 517.81 1413.56 522.4 1423.87 519.24 1427.52 511.13 1432.73 503.2 1436.12 494.35 1432.19 488.61 1423.93 491.78 1416.39 481.36 1406.09 478.45 1399.12 483.51 1390.38 484.7 1385.48 489.17 1378.98 496.23 1377.01 505.85 1374.03 515.05 1371.56 524.45 1368.28 533.68 1365.09 541.01 1371.18 545.21 1380.47 545.13 1380.5 556.37 1386.11 565.48 1392.31 574 1400.43 580.85 1405.72 590.07 1411.14 598.83 1414.73 608.88 1411.53 619.1 1408.75 629.65 1402.87 635.53 1411.13 637.73 1418.69 631.56 1419.86 621.79 1430.35 621.41 1437.4 616.24 1444.76 620.63 1452.11 627.84 1461.96 631.49 1465.73 640.07 1461.91 646.75 1452.8 651.32 1445.14 658.61 1444.6 668.63 1447.54 677.68 1452 682.31 1460.41 679.23 1468.47 673.96 1477.52 669.93 1486.15 665.08 1495.43 659.83 1501.94 667.43 1507.95 674.91 1516.1 679.93 1526.34 681.12 1529.14 669.24 1522.56 658.95 1516.65 650.85 1508.91 643.35"/>
    <polygon class="cls-3" points="1460.97 523.26 1464.76 515.81 1455.51 520.88 1445.47 523.75 1445.92 533.17 1454.35 530.1 1460.97 523.26"/>
    <polygon class="cls-3" points="1519.93 475.56 1524.76 469.81 1525.92 459.16 1525.87 448.45 1521.3 456.77 1522.88 466.53 1519.93 475.56"/>
    <polygon class="cls-3" points="1401.53 623.16 1407.64 615.22 1408.82 605.78 1407.11 596.27 1401.36 588.24 1394.19 581.49 1387.9 573.93 1381.68 566.42 1376.46 558.08 1375.34 548.37 1365.45 549.02 1357.5 555.27 1353.34 564.81 1351.19 574.98 1351.22 585.38 1350.75 595.68 1350.28 606 1349.84 616.35 1350.29 626.68 1350.34 636.62 1359.88 637.14 1369.83 638.13 1379.83 637.35 1389.59 635.71 1399.34 633.06 1401.53 623.16"/>
    <g>
      <polygon class="cls-3" points="1236.19 615.64 1238.4 601.82 1233.12 591.85 1243.05 585.33 1246.49 580.71 1237.51 576.34 1230.88 569.18 1226.65 558.89 1230.3 548.3 1229.93 537.58 1230.27 526.84 1232.24 516.38 1234.2 505.95 1238.46 495.97 1241.69 485.76 1240.59 474.83 1246.38 464.87 1243.62 453.9 1243.49 441.38 1245.68 453.48 1244.64 463.7 1248.54 473.56 1247.83 483.75 1248.88 493.85 1246.76 504.12 1252.32 513.93 1250.97 524.19 1255.58 533.64 1257.45 541.12 1260.21 535.35 1266.12 527.11 1271.43 518.24 1274.6 508.61 1277.15 497.08 1278.81 488.41 1289.2 484.06 1286.8 472.73 1288.83 463.29 1297.78 458.56 1307.44 452.5 1310.22 441.73 1311.87 431.52 1312.14 421.21 1309.55 411.25 1307.77 401.26 1304.47 391.6 1304.28 381.36 1303.21 371.54 1292.05 370.52 1281.96 371.09 1271.87 373.3 1261.78 373.89 1251.69 369.05 1241.59 374.69 1231.5 371.92 1221.4 368.87 1211.31 369.6 1201.21 373.14 1191.12 370.8 1178.5 370.32 1181.31 382.91 1180.98 393.23 1188.67 396.43 1199.3 397.51 1210.58 394.11 1220.64 399.14 1229.13 403.2 1219.58 402.92 1208.83 409.09 1197.96 408.29 1187.18 407 1176.62 404.37 1178.34 412.07 1174.12 421.05 1172.72 430.94 1183.19 429.42 1193.24 429.88 1203.32 432.36 1213.09 435.7 1223.84 434.67 1225.95 445.01 1214.21 445.45 1203.85 442.1 1193.03 443.3 1182.9 437.61 1173.19 439.75 1171.73 449.38 1171.01 458.73 1177.02 466.71 1186.72 471.28 1195.23 468.56 1204.34 464.18 1213.69 460.49 1222.04 455.68 1223.01 463.18 1211.72 466.14 1202 472.72 1192.91 476.77 1199.8 485 1209.28 490.27 1217.39 497.48 1218.13 507.09 1211.38 499.78 1201.94 494.77 1191.72 490.78 1185.13 482.48 1177.19 488.91 1169.12 493.45 1163.98 501.33 1163.39 510.67 1172.99 510.39 1183.14 514.08 1193.39 515.7 1203.76 516.34 1214.03 518.15 1213.02 522.44 1202.77 525.33 1192.26 525.35 1181.78 524.82 1171.95 519.24 1161.7 517.65 1160.31 530.43 1158.92 540.86 1158.96 551.48 1154.14 561.45 1153.93 572.9 1163.09 575.39 1172.22 573.94 1181.33 575.38 1174.71 567.14 1168.44 559.3 1167.91 548.66 1166.82 541.33 1175.89 537.7 1185.29 542.52 1195.04 544.39 1204.96 546.09 1213.27 545.74 1211.48 549.09 1202.25 553.31 1192.38 552.61 1182.94 550.17 1173.24 547.09 1176.86 558.72 1186.53 565.59 1191.4 575.49 1185.85 582.01 1174.95 584.52 1164.08 582.35 1154.48 580.98 1152.42 590.14 1150.38 599.66 1153.88 606.55 1161.9 613.05 1171.81 612.28 1177.06 603.47 1182.73 596.73 1184.66 603.02 1176.73 612.67 1191.58 609.7 1203.7 612.64 1206.72 622.72 1195.95 623.79 1185.31 617.64 1173.94 619.79 1167.47 630.22 1158.52 630.44 1165.13 624.03 1158.37 614.84 1148.87 614.63 1144.16 626.22 1145.48 636.03 1142.74 647.89 1154.29 644.12 1163.77 646.99 1173.4 647.07 1182.95 648.56 1192.8 647.98 1202.55 650.66 1202.83 658.65 1192.78 660.4 1182.27 657.61 1171.5 656.78 1160.64 656.43 1149.71 652.6 1140.83 660.97 1137.97 671.9 1142.05 683.23 1135.57 693.6 1149.12 696.88 1159.95 694.66 1170.77 696.31 1181.6 690.84 1192.43 694.07 1203.26 694.03 1214.09 691.99 1225.63 694.1 1227.28 684.21 1226.37 674.41 1224.25 664.5 1228.35 655.13 1226.49 645.24 1230.82 636.33 1239.4 632.53 1243.41 623.48 1236.19 615.64"/>
      <polygon class="cls-3" points="1320.29 496.12 1310.71 498.97 1307.61 508.55 1307.25 518.96 1300.92 527.17 1294.85 534.99 1293.44 544.59 1291.72 553.19 1288.84 563.39 1286.56 574.09 1288.31 584.56 1283.51 593.83 1276.88 605.69 1285.32 615.9 1279.64 623.08 1280.21 631.5 1278.03 641.1 1277.28 651.38 1279.56 661.81 1285.02 670.79 1289.95 680.27 1291.85 689.08 1300.58 692.84 1310.34 694.48 1320.3 694.77 1330.13 692.35 1340.24 695.12 1350.33 692.86 1347.32 683.48 1348.16 672.7 1345.95 662.38 1342.31 652.26 1342.35 641.61 1339.57 631.37 1338.56 620.86 1338.7 610.18 1337.2 599.75 1334.02 589.56 1331.43 579.29 1329.8 568.87 1329.14 558.31 1326.5 548.04 1324.98 537.6 1324.61 527 1321.98 516.73 1321.37 506.17 1320.29 496.12"/>
      <polygon class="cls-3" points="1283.13 678.86 1279.75 668.47 1274.58 658.7 1272.97 648.5 1277.01 637.01 1271.97 626.34 1277.29 619.89 1278.61 608.76 1275.21 600.3 1279.62 591.71 1283.53 582.93 1284.98 572.5 1284.62 561.69 1288.22 551.43 1289.56 540.7 1293.01 530.23 1300.07 522.28 1299.23 512.17 1304.43 502.95 1310.52 495.21 1319.97 491.55 1318.27 482.1 1315.57 472.89 1317.95 463.04 1314.42 453.96 1312.29 446.3 1305.5 452.94 1299.5 461.74 1289.9 465.69 1291.79 475.64 1294.43 484.49 1285.37 487.54 1278.03 493.38 1277.98 503.5 1275.88 513.8 1271.2 523.07 1266.07 533.05 1271.51 543.2 1260.32 546.42 1254.85 556.53 1257.48 567.49 1257.71 578.66 1256.52 584.69 1246.2 589.94 1239.96 597.13 1242.11 606.85 1244.7 615.33 1250.3 623.4 1244.28 630.63 1251.07 635.52 1259.89 634.82 1262.6 645.31 1263.75 654.93 1260.06 664.93 1261.3 674.54 1265.53 683.93 1265.82 692.45 1273.69 695.11 1282.82 692.06 1288.83 686.82 1283.13 678.86"/>
      <polygon class="cls-3" points="1168.19 467.86 1166.12 482.86 1174.33 479.08 1175.45 473.01 1168.19 467.86"/>
    </g>
  </g>
  <g>
    <path class="cls-2" d="M390.07,583.27c1.08-19.65,18.9-28.48,30.11-43.97-6.93-29.42,11.79-47.92-23.15-35.52-13.19,19.45-19.28,66.36-6.95,79.49Z"/>
    <path class="cls-2" d="M478.07,509.84c27.92-27.97,38.67,4,28.99,29.45,9.39,7.15,10.9,19.19,4,28.66,28.39,7.2,3.45-92.17-21.32-105.11-61.06,20.39-41.21-3.35-11.66,47.01Z"/>
    <path class="cls-2" d="M379.88,638.5c-3.68-11.27-14.76,13.09-23.42,10.2-3.5-1.6-6,.81-7.19,4.75,17.11,5.69,23.66,1.51,30.61-14.95Z"/>
    <path class="cls-2" d="M515.18,577.78c-12.81-7.36-5.22-13.63-3.94-24.58-15.78-12.97,5-50.15-14.89-49.91-35.92,9.19,15.22,106.17-64.54,122.84.11,7.56-2.45.77-2.58-2.59-14.58,12-7.79-7.23-13.23-14.09,1.77-4,7.21-3.07,4.03-9.2-2.31-39.43,10.84-80.87-24.23-21.83-.55,6.3-3.42,9.75-9.72,10.82-1.9,13.44,3.28,30.89-5.64,41.51,9.13,8.8-3.46,14.89-3.64,24.76,56.19,6.01,139.19-7.08,138.39-77.72Z"/>
    <path class="cls-2" d="M353.44,446.38c35.65,13.92,30.54,38.41,31.2,72.92,3.22-25,35.02-15.87,35.1-40.71-10.68-13.16,11.12-5.62,17.25-6.33,8.17,6.77,4.69-4.33,10.01-6.75,7.78,0,15.56,2.32,23.32,1.05,39.92-12.85-31.79-24.53-47.42-25.65-6.89,5.46-83.14-2.42-69.46,5.46Z"/>
    <path class="cls-2" d="M585.1,609.45c-9.09-4.18-23.17,4.05-19.22-12.6-4.23-1-8.54-1.6-9.51-6.92-.63,15.82,2.65,32.84,8.8,47.51,25.5.24,14.43-8.06,19.93-27.99Z"/>
    <path class="cls-2" d="M581.94,497c3.68-11.91-23.66,10.64-33.59-.61-4.66,18.06,2.91,30.94,7.63,46.99,4.72,1.05,12.78-.3,12.44,6.87,10.06,24.58,23.2,1.27,10.08-9.53,9.66-8.94,2.72-31.9,3.45-43.71Z"/>
    <path class="cls-2" d="M543.97,456.73c8.06,8.51,18.53-11.7,28.77-4.53,7.76,5.17,6.5-1,9.33-4.53,8.23-10.34-36.2-.89-40.26-3.02-3.14-2.34-14.79-4.44-8.77,2.87,2.57,2.49,11.69,2.87,10.93,9.2Z"/>
    <path class="cls-2" d="M581.79,458.6c-17.24-7.04-43.77,3.25-33.93,26.32,10.8,27.49,43.58-2.28,33.93-26.32Z"/>
    <path class="cls-2" d="M579.26,640.81c-6.72-3.6-16.06,5.57-17.74.86-7.72-22.17-13-45.72-6.59-69.24,8.24-5.95,1.49,16.06,7.32,19.15,3.8.6,7.98,1.38,8.13,5.88,9.5,26.49,23.12-34.55.35-36.24-5.51-2.57-4.9-11.52-8.93-12.62-13.18,1.77-7.97-11.38-15.01-17.73-3.69,20.31,9.23,91.24-5.96,103.04,5.28,7.88-14.53,14.12-8.06,18.98,5.77-1.33,35.43,3.02,34.66-2.02,3.69,1.09-.72,7.93,9.92-.29-5.41,4.21,2.73,8.48,6.04,2.88-2.97-4.77,5.65-15.41-4.12-12.64Z"/>
    <path class="cls-2" d="M638.93,502.75c17.35,12.33,40.89-5.27,53.98,15.53,24.16,21.47,14.24-24.17-4.61-23.24-18.01-25.77-55.76-29.42-49.37,7.71Z"/>
    <path class="cls-2" d="M622.34,608.82c39.71,54.06,1.99-31.94,58.1-14.47,13.64-3.24,15.36,12.04,16.59,26.5,12.43-.88,37.37-7.48,30.43-23.2-5.6-36.73-16.81-69.49-50.05-86.91-13.93.99-30.61,4.62-42.21-5.55-.19,32.61-28.64,75.01-12.86,103.62ZM669.09,512.81c6.6,23.31,27.43,67.8-12.37,51.19,6.14-16.71,8.62-33.36,12.37-51.19Z"/>
    <path class="cls-2" d="M598.94,669.98c10.95-5.13,18.65-19.23,32.77-12.24,22.91-25.21-7.71-30.92-17.91-53.99,3.62,19.62-37.82,70.25-14.87,66.23Z"/>
    <path class="cls-2" d="M627.52,661.05c-15.99-2.98-24.01,19.84-42.08,13.87-18.98,32.45-23.31,30.65,25.26-3.35,6.48-2.44,17.46-7.16,16.82-10.52Z"/>
    <path class="cls-2" d="M683.27,652.13c-3.23,1.42-6.09,3.15-7.57,6.21,1.05-3.03,16.92.1,7.57-6.21Z"/>
    <path class="cls-2" d="M742.42,648.56c-8.11-41.49-10.43-32.59-45.02-23.39,8.89,19.44-25.05,34.9,9.67,29.36,3.02-6.36,8.93-12.12,15.65-6.2-.56-3.52,2.09-14.76,5.02-6.77-1.51,14.68.08,13.36-12.48,8.86-9.65,11.31,44.67,4.7,27.16-1.87Z"/>
    <path class="cls-2" d="M638.02,447.82c-6.91,4.68,5.97,5.24,2.3,12.08,4.57,29.07,16.2-6.45,32.1,17.73,48.15,34.1,12.88-.94,16.65-32.4.69-8.22-6.31,1.15-11.07-3.16-4.64.82-14.9,4.1-14.09-1.73-3.72-4.96-5.77,3.82-10.64,1.73-5.64.58-31.82.55-15.24,5.75Z"/>
    <path class="cls-2" d="M772.47,593.91c28.71,2.4-8.96-4.46-7.92-22.37,2.59,13.98-9.14,49.95,7.92,22.37Z"/>
    <path class="cls-2" d="M860.85,638c3.2-31.86-25.05-9-44.66-11.7,1.15,8.62,13.73,16.65,13.37,27.44,9.95,1.77,35.1.21,31.29-15.74Z"/>
    <path class="cls-2" d="M885.36,592.19c.38-21.27-11.87-43.24-28.76-51.48-9.11,7.07,5.52-8.76,7.91-9.05,10.06-13.46,11.72-37.54,6.9-53.78-15.05-51.6-84.63-29.51-126.84-32.36-11.96,6.93,12.77,12.13,15.67,18.12,15.46,18.43-14.79,64.48,16.65,63.96,2.67,27.99,37.23,29.33,60.15,32.96,28.61,27.93,2.56,43.71,13.84,56.99,15.72-1.87,14.95,10.23,14.27,22.67,8.42,8.89,23.4-34.18,20.21-48.03ZM834.89,515.4c-4.56.91-2.2,2.72-1.3,4.89-4.41,4.95-12.37,12.57-19.27,7.19-24.76,18.65-27.28-75.97,2.3-52.49,18.55.26,35.07,22.17,18.27,40.41Z"/>
    <path class="cls-2" d="M823.27,646.4c-.97-10.67-15.97-8.78-11.28-20.77-19.43-.84-14.61-8.97-33.29,8.34,1.64,6.62,2.73,14.55,1.54,20.64,9.83-3.68,46.43,7.92,43.03-8.2Z"/>
    <path class="cls-2" d="M776.53,648.87c-11.42-26.68,31.91-26.94,21.69-54.23-2.58-6.31-4.54-38.32,1.69-37.05-24.74-4.62-37.5-55.11-37.06-5.95,8.07,47.69,28.57,28.04,26.24,47.93-26.01-6.83-26.16,23.4-29.11,44.39-2.01,7.04-15.77,5.43-12.08,13.51,8.53.61,28.14,2.2,28.64-8.61Z"/>
    <path class="cls-2" d="M943.44,509.7c-13.4-34.38-19.41-33.09-26.27,3.79-2.4,13.82-13.52,22.3-2.85,35.8-2.2,38.59,32.28-20.81,29.13-39.59Z"/>
    <path class="cls-2" d="M997.64,480.83c44.95-34.02-67.32-35.81-42.84-6.63,3.58,11.8,30.56-19.08,42.84,6.63Z"/>
    <path class="cls-2" d="M1037.65,535.11c-1.4-12.66-4.03-24.8-3.13-37.71-2.73-8.42-16.41-30.87-16.72-11.28-7.74,21.57.75,42.4.81,67.23,15.01-4.23,37.46,31.92,19.04-18.24Z"/>
    <path class="cls-2" d="M950.36,601.54c-8.33-18.67-5.02-19.25-23.22-11.44-15.78-15.91-2.24,15.18-2.53,23.15,2.11,6.89,11.18,4.45,15.11,8.91,2.12,4.48,4.22,9.01,9.35,10.66,29.96,13.47,10.63-15.27,1.29-31.27Z"/>
    <path class="cls-2" d="M986.71,625.07c-15.56,48.01,84.19-36.47,38.31-41.54-20.6-5.95-12.82,40.49-38.31,41.54Z"/>
    <path class="cls-2" d="M1050.88,507.2c-65.54-163.7-202.97-1.33-130.42,116.05,73.2,102.84,162.26-33.11,130.42-116.05ZM1025.82,579.3c48.84,8.12-19.58,63.92-42.63,68.55-11.06.27,1.87-15.99-.7-21.86-25.35-3.16-4.84,36.84-43.84,3.64-1.27-6.73-6.5-5.51-11.37-7.86-9.83-7.25-10.96-26.8-13.38-37.3,11.03-6.75,17.4,3.77,28.2-6.22-4.21-24.06,1.26-44.06-19.78-13.46-19.33,25.74-7.41-7.81-17.71-32.39,13.85-22.49,20.68-98.45,38.28-32.32,37.59-26.01-39.33-35.59,33.44-50.94,12.57-1.97,47.39,5.58,34.53,23.36-12.25,5.97-8.41,29.85,2.71,21.8-1.09-8.94,1.88-15.9,4.6-23.99,7.38-5.96,24.28,29.65,19.93,39.01,1.74,19.56,16.02,41.03,6.08,60.74-5.06,3.73-6.03-9.9-13.29-6.34-10.58-21.81-25.39,17.86-5.09,15.56Z"/>
  </g>
</svg>
