<?xml version="1.0" encoding="UTF-8"?>
<svg id="Layer_2" data-name="Layer 2" xmlns="http://www.w3.org/2000/svg" viewBox="0 0 2014 1104">
  <defs>
    <style>
      .cls-1 {
        fill: none;
        stroke: #c33;
        stroke-miterlimit: 10;
        stroke-width: 25px;
      }

      .cls-2 {
        fill: #f2f2f2;
      }

      .cls-3 {
        fill: #c33;
      }
    </style>
  </defs>
  <g>
    <polygon class="cls-1" points="1620.84 886.43 1610.54 883.18 1600.25 891.19 1589.91 883.24 1579.62 884.62 1569.44 890.66 1559.03 885.09 1548.71 884.61 1538.46 886.73 1528.24 889.58 1517.7 880.53 1507.47 883.09 1497.17 882.52 1487.03 891.91 1476.58 880.34 1466.36 887.74 1456.06 882.55 1445.76 885.76 1435.46 886.34 1425.07 889.53 1414.68 890.8 1404.65 884.28 1394.51 881.69 1384.2 882.08 1373.17 889.8 1363.64 881.37 1353.61 878.81 1343.64 876.19 1333.16 876.89 1321.49 882.93 1311.36 880.23 1302.64 872.11 1292.08 871.52 1281.44 870.67 1274.67 858.79 1263.92 858.28 1255.88 851.25 1243.98 852.18 1234.01 848.61 1226.72 840.62 1217.25 836.02 1210.92 827.32 1201.73 822.1 1199.83 809.64 1192.83 802.51 1183.32 797.07 1176.55 789.24 1167.34 782.55 1170.78 769.16 1168.19 759.34 1153.29 754.06 1153.92 742.8 1158.89 730.83 1150.61 722.31 1149.71 712.01 1145.8 702.17 1141.84 692.16 1148.19 681.29 1151.01 671.13 1146.59 660.9 1145.98 650.59 1140.12 640.35 1142.99 630.03 1145.95 619.67 1148.73 609.3 1147.38 599.02 1141.59 588.87 1145.18 578.47 1137.09 568.37 1140.51 557.98 1138.87 547.7 1145.16 537.29 1139.06 527.06 1138.92 516.74 1145.22 506.43 1137.06 496.07 1143.59 485.84 1143.29 475.53 1138.65 465.05 1140.51 454.77 1142.85 444.56 1138.48 433.86 1143.6 423.89 1148.06 413.99 1145.27 403.26 1150.02 393.5 1147.57 382.63 1151.01 372.72 1155.13 363.04 1151.16 351.38 1166.85 345 1164.05 333.49 1164.14 322.57 1176.85 316.58 1172.41 303.46 1175.34 293.25 1189.79 289.56 1186.37 275.35 1193.23 267.35 1198.87 258.41 1207.58 252.15 1217.57 247.62 1221.08 235.88 1233.85 235.5 1238.26 223.58 1246.25 216.25 1256.21 212.33 1267.86 212.76 1278.53 211.98 1288.67 210.39 1296.19 199.01 1306.74 198.25 1316.56 193.86 1328.51 204.3 1338.25 200.41 1348.1 195.11 1358.42 194.28 1368.74 192.75 1379.04 201.58 1389.36 198.85 1399.68 198.77 1410.01 198.97 1420.12 190.54 1430.41 190.1 1440.67 188.88 1451.17 196.29 1461.55 199.63 1471.84 199.55 1482.02 194.44 1492.36 196.97 1502.63 196.29 1512.92 197.07 1523.19 199.56 1533.46 196.83 1543.74 196.28 1554.1 193.33 1564.27 196.73 1574.51 197.55 1585.28 189.84 1595.66 190.16 1605.95 191.64 1615.06 203.54 1626.05 198.04 1636.83 195.72 1647.27 196.36 1657.45 198.62 1667.37 202.04 1676.49 208.34 1685.62 213.79 1697.53 210.18 1704.44 221.59 1716.16 219.73 1725.09 225.06 1733.51 231.17 1743.73 233.94 1754.02 237.12 1759.6 247.19 1771.31 249.12 1778.86 256.49 1786.44 263.81 1792.69 272.32 1801.76 278.7 1804.2 289.8 1812.92 296.88 1813.32 308.5 1821.77 316.19 1819.69 328.18 1821.24 338.43 1829.35 346.89 1825.37 358.38 1824.02 368.91 1834.16 377.73 1837.68 387.81 1835.78 398.4 1840.61 408.75 1832.89 419.09 1836.4 429.4 1837.65 439.67 1840.93 449.9 1835.53 460.28 1831.08 470.69 1834.96 480.9 1842.28 491.01 1833.31 501.55 1830.23 511.92 1836.87 522.06 1843.16 532.24 1836.56 542.67 1836.48 552.97 1838.74 563.26 1841.69 573.58 1831.71 583.83 1839.91 594.24 1831.54 604.34 1841.55 614.99 1833.7 624.97 1837.1 635.48 1831.53 645.41 1838.16 656.34 1834.43 666.37 1826.17 675.72 1828.95 686.45 1833.87 697.75 1826.89 707.01 1829.83 718.25 1824.39 727.67 1813.77 735.39 1813.07 745.81 1813.42 756.81 1809.87 766.52 1798.57 772.67 1794.43 781.78 1796.23 794.43 1792.18 804.19 1783.24 810.58 1776.79 818.56 1765.77 822.25 1762.32 833.06 1753.3 838.2 1744.04 842.63 1735.83 848.29 1727.22 853.34 1719.6 860.53 1711.6 867.75 1701.28 869.61 1691.9 873.94 1681.64 875.38 1672.34 880.96 1661.28 877.76 1651.36 880.43 1641.84 888.26 1631.25 886.43 1620.84 886.43"/>
    <polygon class="cls-3" points="1587.3 522.14 1577.77 519.5 1568.31 516.68 1558.6 515 1552.91 519.52 1558.9 527.4 1569.88 528.81 1578.62 535.11 1581.6 545.48 1589.61 551.23 1591.66 541.75 1595.3 532.54 1596.29 522.78 1587.3 522.14"/>
    <polygon class="cls-3" points="1550.56 454.42 1560.54 456.16 1569.99 453.03 1578.83 446.71 1586.42 453.89 1590.99 463.09 1601.23 464.9 1608.57 458.48 1615.72 450.31 1619.36 440.11 1621.33 429.45 1623.18 418.83 1627.36 408.82 1625.2 419.1 1627.19 429.61 1627.61 440.12 1626.23 451.19 1636.27 449.75 1646.47 451.53 1653.54 459.26 1661.48 465.92 1669.38 462.35 1670.88 452.13 1669.45 442.02 1675.89 434.14 1681.22 425.77 1688.85 419.62 1695.91 412.88 1697.66 403.73 1703.97 396.13 1713.01 393.82 1718.06 388.38 1713.62 379.52 1710.99 369.1 1716.85 360.02 1725.71 354.38 1731 345.42 1737.19 337.32 1739.32 327.31 1738.63 317.2 1737.29 307.18 1727.28 305.27 1716.77 307.26 1706.26 307.35 1695.74 308.46 1685.23 306.83 1674.72 307.14 1664.2 307.96 1653.68 306.5 1643.16 306.25 1632.65 308.66 1622.13 307.24 1611.61 307.21 1601.1 306.55 1590.61 306.77 1588.57 316.98 1583.74 326.43 1583.31 337.48 1579.75 347.4 1574.82 356.8 1571.62 366.85 1567.67 376.62 1563.06 386.14 1559.67 396.13 1556.56 406.2 1552.76 416.03 1548.74 425.81 1546.29 436.08 1545.37 446.66 1542.15 456.92 1550.56 454.42"/>
    <polygon class="cls-3" points="1737.24 518.37 1727.45 513.14 1717.65 505.23 1707.99 505.23 1699.74 508.2 1697.32 517.05 1690.67 524.36 1681.96 527.86 1683.92 538.18 1682.25 548.28 1675.01 555.83 1666.89 562.95 1662.26 572.39 1655.49 580.96 1647.94 588.68 1650.16 597.81 1660.71 601.16 1665.53 609.74 1668.13 619.27 1676.09 624.97 1685.92 626.25 1690.98 636.25 1698.23 641.49 1704.09 631.99 1715.79 629.16 1727.03 627.17 1736.84 622.27 1744.82 614.15 1754.81 612.37 1764.49 615.36 1769.14 607.78 1769.68 598.14 1758.9 598.84 1748.35 598.88 1737.43 598.35 1736.81 588.16 1738.77 578.14 1736.53 568.12 1738.69 558.1 1738.32 548.08 1738.01 538.06 1737.46 528.04 1737.24 518.37"/>
    <polygon class="cls-3" points="1626.91 696.35 1634.61 691.14 1642.38 685.42 1647.62 678.3 1641.69 671.55 1633.72 666.08 1624.92 659.31 1616.99 651.69 1607.48 656.01 1596.78 659.89 1594.45 668.81 1604.25 673.87 1615.43 675.51 1626.72 674.45 1626.33 685.33 1626.91 696.35"/>
    <polygon class="cls-3" points="1712.9 731.28 1706.42 723.58 1696.87 721.43 1687.28 721.48 1677.78 723.65 1668.82 727.61 1659.71 731.44 1651.23 736.44 1642.92 741.66 1635 747.46 1627.13 753.52 1637.14 751.32 1647.71 751.47 1658.23 753.01 1668.84 751.78 1679.37 753.34 1689.96 752.21 1700.51 752.58 1711.11 754.18 1721.56 751.82 1731.94 750.49 1739.8 746.21 1732.84 738.93 1723.5 733.88 1712.9 731.28"/>
    <polygon class="cls-3" points="1762.72 667.03 1751.83 665.91 1741.03 666.84 1730.66 669.82 1723.44 676.78 1728.61 685.82 1737.75 691.62 1737.74 682.83 1737.72 673.93 1748.35 673.89 1758.9 674.22 1769.31 673.7 1769.34 666.24 1762.72 667.03"/>
    <polygon class="cls-3" points="1710.52 684.91 1717.96 673.86 1723.01 664.8 1732.57 660.16 1742.91 661.59 1753.11 662.24 1761.88 657.63 1768.32 651.53 1772.11 641.77 1772.95 631.35 1771.9 619.37 1760.12 618.69 1750.9 621.31 1744.91 627.86 1735.34 631.24 1727.16 634.74 1717.95 638.07 1707.25 636.78 1698.44 642.61 1696.15 654.67 1685.52 645.02 1682.03 634.36 1670.65 630.95 1661.99 622.03 1660.98 610.21 1651.83 602.68 1639.97 601.57 1643.39 591.84 1643.18 581.56 1648.53 572.4 1656.81 568.34 1660.92 556.51 1673.08 549.59 1678.8 539.8 1677.54 528.75 1679.79 519.36 1687.29 514.76 1688.62 505.63 1689.01 494.33 1697.84 501.03 1710.12 498.36 1718.81 504.5 1728.56 507.39 1737.65 511.57 1739.83 501.3 1740.6 490.62 1736.51 479.2 1737.24 468.56 1734.39 460.69 1727.26 461.83 1717.38 468.42 1715.73 456.83 1719.21 447.38 1728.05 441.15 1726.41 431.16 1728.14 422.03 1728.6 411.74 1733.44 402.88 1735.62 392.81 1740.42 382.74 1738.49 372.12 1734.4 361.76 1737.62 351.62 1727.94 356.03 1719.23 363.29 1718.06 374.88 1723.28 384.11 1725.87 395.15 1715.45 400.3 1702.32 402.64 1706.4 416.27 1693.54 419.66 1686.72 429.29 1681.23 437.72 1682.59 448.73 1676.68 457.36 1670.6 465.93 1667.61 474.94 1663.48 471.06 1654.5 466.04 1645.93 461.49 1636.04 461.7 1626.74 459.01 1625.81 468.25 1626.77 479.54 1628.56 490.82 1629.18 501.9 1627.6 508.53 1639.76 507.6 1649.33 503.11 1659.05 500.96 1667.68 504.05 1662.85 515.03 1653.66 521.82 1644.73 528.07 1635.26 533.14 1624.35 538.02 1622.82 549.88 1623.92 560.34 1627.3 570.57 1626.88 580.93 1624.63 590.46 1619.51 600.1 1608.35 595.7 1598.12 601.78 1587.8 599.61 1578.19 594.94 1582.98 590.02 1586.31 581.03 1584.73 570.54 1590.57 561.53 1581.27 559.74 1577.67 547.76 1569.13 540.78 1558.87 536.41 1554.36 524.85 1547.29 517.48 1541.9 506.7 1552.83 505.11 1562.02 505.82 1569.97 513.99 1579.52 511.85 1583.16 514.65 1591.36 513.84 1602.98 513.63 1598.76 501.33 1603.88 491.71 1606.36 481.3 1608.18 471.45 1606.52 469.08 1596.78 473.04 1585.13 470.92 1583.67 459.92 1575.43 453.57 1568.97 461.49 1560.27 465.79 1552.44 459.97 1543.39 465.82 1535.02 472.87 1534.22 484.14 1527.2 492.66 1528.13 504.02 1524.81 513.93 1515.92 522.29 1516.71 533.45 1511.37 544.21 1523.99 546.04 1537.15 546.75 1538.55 557.6 1544.32 566.03 1545.66 577 1553.63 583.96 1556.2 595.38 1565.81 600.72 1573.91 607.56 1579.16 616.75 1578.12 627.77 1585.52 637.52 1582.9 648.25 1574.77 656.14 1573.41 667.45 1563.27 675.12 1575.6 672.21 1584.79 671.52 1589.82 663.21 1590.3 651.78 1600.06 651.23 1609.31 648.83 1615.53 642.67 1623.53 647.61 1627.33 658.3 1637.01 662.22 1644.08 669.65 1651.79 675.37 1655.99 679.71 1650.24 686.47 1642.31 692.15 1635.38 699.59 1625.6 703.62 1627.37 714.31 1623.81 724.06 1627.21 733.53 1634.63 737.24 1644.29 737.68 1652.14 731.34 1663.21 730.57 1671.08 724.42 1679.6 719.42 1686.16 711.15 1695.25 708.71 1702.51 714.85 1711 720.52 1717.71 728.93 1729.39 728.41 1739.18 736.31 1738.08 724.02 1736.07 713.89 1738.92 702.45 1733.48 692.46 1725.33 684.31 1710.52 684.91"/>
    <polygon class="cls-3" points="1648.25 517.02 1654.58 508.15 1646.92 510.13 1637.25 515.24 1626.82 517.7 1626.32 527.36 1633.66 530.34 1641.51 524.27 1648.25 517.02"/>
    <polygon class="cls-3" points="1729.51 450.9 1735.53 446.58 1737.28 435.62 1738.61 424.53 1737.83 413.05 1732.31 421.57 1732.3 431.74 1733.59 441.83 1729.51 450.9"/>
    <polygon class="cls-3" points="1567.49 655.53 1573.6 647.47 1575.45 637.38 1576.65 627.54 1573.28 617.98 1567.94 609.23 1561.4 601.32 1553.61 594.68 1546.42 587.47 1540.73 579.01 1534.1 571.23 1531.25 561.46 1530.36 551 1519.81 551.69 1510.09 554.54 1505.21 563.57 1500.04 572.39 1498.55 582.54 1497.17 592.6 1495.85 602.7 1493.86 612.83 1493.64 623.07 1495.7 633.29 1494.3 643.52 1495.86 653.71 1495.82 663.93 1494.33 674.35 1504.87 674.02 1515.26 673.12 1525.53 674.71 1535.85 673.67 1546.15 673.66 1556.65 672.48 1563.7 664.76 1567.49 655.53"/>
    <g>
      <polygon class="cls-3" points="1339.71 642.28 1342.51 636.53 1335.38 629.12 1336.9 617.98 1336.78 610.22 1342.91 601.68 1352.85 601.19 1353.26 592.09 1341.62 596.82 1330.8 590.73 1326.4 579.83 1329.82 568.79 1323.94 558.54 1328.18 548.45 1327.14 537.92 1333.13 528.46 1331.69 517.79 1330.88 507.16 1332.41 496.98 1337.23 487.47 1342.2 477.96 1339.42 467.02 1345.69 457.68 1343.71 446.99 1348.51 437.27 1350.85 427.13 1346.43 416.51 1349.12 405.61 1346.63 417.13 1350.29 427.03 1352.99 437.14 1357.45 447.2 1352.91 457.82 1358.39 467.87 1356.16 478.32 1356.17 488.66 1353.57 499.18 1359.42 509.11 1355.54 519.85 1361.66 529.45 1358.26 541.17 1366.78 541.02 1371.92 533.5 1376.38 524.43 1382.83 515.86 1382.52 504.9 1391.12 496.83 1393.83 484.8 1392.06 473.71 1399.4 466.71 1409.22 461.52 1405.29 451.63 1409.76 439.67 1411.31 430.02 1422.23 426.95 1428.75 417.36 1437.46 411.02 1441.66 400.84 1437.39 389.91 1435.62 379.76 1439.08 369 1441.25 358.01 1432.66 348.85 1435.02 337.72 1433.86 327.28 1431.48 317.15 1424.35 306.94 1417.99 310.02 1407.53 310.29 1397.06 304.08 1386.6 307.7 1376.14 307.93 1365.68 303.27 1355.21 304.57 1344.75 309.94 1334.28 306.72 1323.81 303.4 1313.34 306.78 1302.87 311.24 1292.4 304.88 1281.93 302.77 1271.47 307.32 1259.27 306.17 1255.58 316.79 1255.68 327.27 1255.2 338.28 1267.32 341.74 1278.3 337 1288.57 341.27 1299.72 338.11 1309.09 346.39 1318.81 349.73 1330.99 351.89 1318.98 356.88 1308.13 357.67 1297.51 354.89 1286.65 357.06 1276.08 355.28 1265.87 351.17 1255.47 348.98 1256.62 359.75 1256.16 369.57 1247.8 378.35 1248.85 388.69 1260.21 392.91 1270.77 393.7 1281.34 390.62 1291.99 388.01 1302.73 388.04 1312.91 392.82 1322.03 398.35 1321.59 407.59 1311.32 407.05 1301.12 403.47 1290.5 404.12 1280.01 403.39 1269.82 399.61 1259.04 401.79 1245.18 398.41 1246.15 409.68 1242.58 418.74 1243.09 429.33 1250.6 437.01 1262.32 437.74 1269.24 444.42 1275.27 439.72 1284.54 436.11 1295.48 435.09 1304.76 431.58 1311.08 421.56 1321.42 424.11 1318.36 433.49 1309.93 436.66 1302.25 442.94 1293.52 446.95 1285.21 451.86 1275.72 454.14 1283.82 459.71 1293.25 463.53 1300.16 471.13 1307.31 478.09 1315.58 484.74 1314.05 495.76 1302.83 492.59 1298.37 482.43 1292.08 474.64 1282.75 470.84 1276.39 463.15 1266.93 458.79 1257.78 462.79 1251.71 471.34 1241.84 473.23 1239.82 482.47 1239.3 491.4 1238.22 497.72 1245.81 502.72 1256.29 503.67 1267.21 500.36 1277 507.46 1287.32 508.92 1297.27 511.73 1310.03 507.04 1307.14 515.81 1296.88 519.07 1286.38 514.06 1275.95 514.01 1265.23 516.07 1254.45 517.37 1244.26 513.71 1233.62 513.35 1229.16 522.16 1231.91 533 1233.9 543.74 1225.35 553.09 1228.33 563.96 1223.3 573.78 1225 583.03 1233.15 588.39 1242.59 587.15 1252.22 584.07 1261.11 587.88 1257.26 578.2 1250.29 570.59 1246.49 561.03 1241.09 552.63 1236.06 542.33 1246.84 537.47 1257.57 535.23 1267.23 541.28 1277.92 539.33 1288.16 539.75 1297.83 545.64 1309.81 542.95 1308.39 555.02 1298.12 553.9 1288.32 558.88 1278.83 556.44 1270.14 550.4 1260.48 549.73 1251.57 552.55 1256.2 560.85 1260.3 571.65 1265.64 581.67 1270.96 591.17 1271.07 595.84 1262.95 598.89 1253.12 597.53 1242.03 602.6 1233.15 594.15 1226.33 597.69 1222.03 605.52 1216.59 614.23 1216.73 624.19 1218.6 635.17 1228.57 640.04 1238.87 633.95 1248.26 639.88 1255.66 627.86 1264.63 620.63 1265.78 623.7 1263.22 630.54 1258.14 639.58 1268.92 640.45 1278.72 642.21 1289.29 637.68 1299.43 643.83 1294.46 653.33 1288.09 653.46 1279.15 649.62 1269.41 653.72 1260.5 649.42 1250.56 647.45 1242.69 658.18 1237.87 668.75 1231.25 664.93 1233.46 656.62 1235.28 650.9 1226 649.15 1215.99 646.51 1212.7 656.25 1213.44 666.33 1213.25 676.29 1214.07 685.66 1220.79 689.4 1231.32 685.67 1241.67 685.83 1251.97 687.68 1262.25 689.34 1271.94 694.8 1282.17 694.6 1291.84 697.1 1294.24 709.36 1281.98 703.87 1272.04 700.94 1261.14 705.32 1250.91 703.55 1240.58 702.49 1230.8 699.3 1220.13 694.18 1213.14 703.71 1205.59 711.22 1203.86 721.6 1207.04 732.36 1198.48 741.97 1202.32 752.56 1211.9 750.19 1221.88 752 1231.85 748.52 1241.83 750.38 1251.82 750.99 1261.8 749.52 1271.78 753.58 1281.76 751.51 1291.74 749.57 1301.73 753.94 1311.71 752.5 1318.22 750.94 1324.5 742.71 1323.22 732.51 1320.79 722.22 1326.2 712.61 1324.64 702.39 1328.73 692.66 1328.02 682.51 1325.18 670.51 1340.66 673.42 1345.59 662.65 1346.62 651.54 1339.71 642.28"/>
      <polygon class="cls-3" points="1452.58 480.57 1443.71 478.96 1436.87 486.86 1433.98 496.19 1430.75 505.58 1434.03 515.77 1428.19 524.01 1419.55 529.67 1418.37 539.91 1417.24 549.6 1412.72 557.19 1412.51 568.09 1411 577.16 1408.25 587.03 1409.12 596.7 1405.53 605.36 1404.59 616.2 1394.63 623.61 1399.65 634.45 1407.03 645.69 1397.02 650.98 1396.4 660.17 1397.01 670.24 1397.22 680.76 1394.53 689.4 1393.62 699.16 1396.41 708.88 1403.19 716.22 1409.68 723.9 1412.02 733.99 1412.91 743.61 1420.32 750.34 1430.36 755.21 1441.36 752.03 1452.04 754.22 1462.73 753.45 1473.47 753.6 1484.04 750.83 1493.96 754.85 1493.81 742.32 1493.42 732.01 1487.51 722.53 1487.55 712.16 1485.32 702.12 1483.19 692.07 1484.43 681.52 1484.86 671.09 1480.7 661.35 1477.01 651.53 1476.65 641.21 1475.8 630.97 1472.58 621.08 1475.79 610.24 1469.76 600.76 1471.94 590.06 1469.02 580.12 1467.92 569.92 1466.33 559.78 1464.75 549.65 1461.29 539.79 1460.41 529.55 1457.74 519.58 1459.59 508.93 1458.59 498.71 1457.19 488.55 1452.58 480.57"/>
      <polygon class="cls-3" points="1406.13 730.51 1398.82 721.2 1395.48 709.95 1385.69 701.98 1384.85 689.35 1392.64 680.14 1391.11 668.3 1383.22 660.03 1389.59 652.3 1394.57 643.99 1390.63 635.26 1391.57 625.36 1395.79 617.07 1397.66 607.18 1406.45 600.6 1402.21 589.84 1405.56 580.04 1408.52 570.48 1409.33 560.79 1408.96 550.7 1413.44 541.84 1412.93 530.76 1421.6 524.27 1428.55 516.5 1423.25 506.45 1423.92 496.36 1428.15 486.94 1438.08 482.86 1444.76 477.13 1453.02 470.74 1449.48 462.31 1452.75 450.9 1451.44 440.07 1449.17 429.34 1443.8 419.1 1440.42 409.98 1435.2 418.05 1428.71 427.7 1417.59 430.97 1410.03 440.05 1413.2 451.72 1414.79 459.28 1413.38 468.81 1403.64 471.57 1397.88 476.38 1392.93 485.48 1391.31 494.58 1388.06 504.03 1388.26 515.5 1384.22 524.43 1381.1 534.6 1382.93 542.86 1377 549.71 1366.26 552.36 1363.48 562.92 1362.44 573.38 1366.5 583.21 1367.36 594.72 1365.26 601.86 1356.94 607.96 1344.59 607.93 1344.56 618.19 1345.35 628.94 1345.64 639.15 1347.44 649.84 1358.81 655.03 1349.52 662.03 1350.38 673.93 1360.89 673.41 1370.19 675.22 1373.52 682.27 1369.37 692.66 1372.67 702.47 1374.1 712.43 1370.91 722.75 1373.53 732.62 1375.38 742.55 1373.95 754.91 1386.56 754.24 1396.98 754.8 1407.5 751.17 1407.61 740.9 1406.13 730.51"/>
      <polygon class="cls-3" points="1243.43 440.14 1242.1 450.56 1240.59 460.98 1249.1 457.36 1256.56 452.2 1251 445.3 1243.43 440.14"/>
    </g>
  </g>
  <g>
    <path class="cls-2" d="M163.68,600.11c1.49-27.29,26.25-39.57,41.82-61.08-9.62-40.86,16.37-66.56-32.16-49.34-18.32,27.01-26.78,92.18-9.66,110.42Z"/>
    <path class="cls-2" d="M285.9,498.11c38.79-38.85,53.71,5.56,40.27,40.9,13.05,9.93,15.14,26.66,5.55,39.81,39.44,10.01,4.79-128.03-29.62-146.01-84.81,28.32-57.25-4.66-16.2,65.29Z"/>
    <path class="cls-2" d="M149.52,676.82c-5.11-15.66-20.51,18.18-32.53,14.17-4.85-2.22-8.34,1.12-9.99,6.6,23.76,7.9,32.86,2.1,42.52-20.77Z"/>
    <path class="cls-2" d="M337.46,592.48c-17.79-10.22-7.25-18.94-5.48-34.15-21.91-18.02,6.94-69.66-20.69-69.33-49.89,12.76,21.14,147.48-89.65,170.63.15,10.5-3.41,1.07-3.59-3.59-20.25,16.68-10.83-10.04-18.37-19.58,2.45-5.55,10.01-4.26,5.6-12.78-3.21-54.78,15.06-112.33-33.66-30.32-.76,8.75-4.75,13.55-13.5,15.03-2.64,18.66,4.55,42.9-7.83,57.66,12.68,12.22-4.8,20.69-5.06,34.39,78.05,8.35,193.34-9.83,192.23-107.96Z"/>
    <path class="cls-2" d="M112.79,409.96c49.52,19.34,42.42,53.35,43.34,101.29,4.48-34.73,48.65-22.05,48.76-56.55-14.84-18.28,15.44-7.81,23.96-8.79,11.35,9.4,6.52-6.01,13.91-9.38,10.8,0,21.61,3.22,32.4,1.46,55.46-17.85-44.16-34.08-65.87-35.62-9.57,7.58-115.48-3.36-96.49,7.58Z"/>
    <path class="cls-2" d="M434.58,636.46c-12.63-5.8-32.19,5.62-26.69-17.5-5.88-1.39-11.86-2.23-13.21-9.61-.87,21.98,3.67,45.62,12.22,65.99,35.42.33,20.04-11.19,27.68-38.88Z"/>
    <path class="cls-2" d="M430.19,480.26c5.11-16.54-32.86,14.78-46.66-.85-6.48,25.08,4.05,42.98,10.6,65.27,6.56,1.46,17.75-.42,17.28,9.54,13.97,34.15,32.23,1.77,14-13.24,13.42-12.42,3.78-44.31,4.79-60.72Z"/>
    <path class="cls-2" d="M377.45,424.34c11.19,11.82,25.74-16.26,39.97-6.3,10.78,7.18,9.02-1.39,12.97-6.29,11.43-14.36-50.28-1.23-55.93-4.19-4.37-3.25-20.54-6.17-12.18,3.99,3.56,3.46,16.24,3.99,15.18,12.79Z"/>
    <path class="cls-2" d="M429.98,426.93c-23.95-9.78-60.8,4.51-47.13,36.56,15.01,38.19,60.54-3.16,47.13-36.56Z"/>
    <path class="cls-2" d="M426.46,680.03c-9.34-5-22.31,7.73-24.65,1.2-10.73-30.79-18.05-63.51-9.15-96.18,11.45-8.26,2.08,22.3,10.16,26.59,5.28.83,11.08,1.92,11.3,8.16,13.2,36.8,32.12-48,.48-50.34-7.65-3.58-6.81-16-12.41-17.53-18.3,2.46-11.07-15.8-20.85-24.63-5.12,28.21,12.82,126.73-8.28,143.12,7.33,10.95-20.19,19.62-11.19,26.37,8.01-1.84,49.21,4.2,48.14-2.8,5.12,1.51-1,11.01,13.78-.4-7.52,5.85,3.79,11.77,8.39,4-4.12-6.63,7.84-21.4-5.72-17.56Z"/>
    <path class="cls-2" d="M509.36,488.25c24.1,17.12,56.8-7.32,74.98,21.58,33.55,29.82,19.78-33.57-6.4-32.28-25.02-35.8-77.46-40.86-68.58,10.71Z"/>
    <path class="cls-2" d="M486.31,635.59c55.16,75.1,2.76-44.37,80.71-20.09,18.94-4.5,21.34,16.73,23.05,36.81,17.26-1.22,51.91-10.39,42.27-32.22-7.78-51.03-23.35-96.52-69.53-120.73-19.35,1.37-42.52,6.42-58.64-7.71-.26,45.3-39.78,104.19-17.86,143.93ZM551.24,502.24c9.17,32.38,38.1,94.18-17.19,71.1,8.53-23.21,11.97-46.34,17.19-71.1Z"/>
    <path class="cls-2" d="M453.8,720.55c15.21-7.13,25.91-26.71,45.52-17,31.83-35.01-10.72-42.95-24.87-74.99,5.02,27.25-52.54,97.58-20.65,91.99Z"/>
    <path class="cls-2" d="M493.5,708.14c-22.21-4.14-33.35,27.55-58.45,19.26-26.37,45.07-32.38,42.58,35.09-4.66,9-3.38,24.25-9.94,23.36-14.61Z"/>
    <path class="cls-2" d="M570.94,695.76c-4.49,1.97-8.46,4.38-10.51,8.62,1.45-4.21,23.5.14,10.51-8.62Z"/>
    <path class="cls-2" d="M653.11,690.8c-11.27-57.63-14.49-45.27-62.54-32.49,12.36,27-34.8,48.47,13.43,40.79,4.2-8.83,12.4-16.84,21.74-8.61-.77-4.88,2.9-20.5,6.97-9.4-2.1,20.39.11,18.56-17.33,12.31-13.41,15.71,62.05,6.53,37.72-2.6Z"/>
    <path class="cls-2" d="M508.09,411.95c-9.6,6.5,8.3,7.28,3.2,16.78,6.35,40.38,22.51-8.96,44.59,24.62,66.89,47.36,17.88-1.3,23.12-45,.95-11.42-8.77,1.6-15.38-4.39-6.44,1.14-20.69,5.7-19.58-2.4-5.16-6.89-8.01,5.3-14.78,2.4-7.83.81-44.19.76-21.17,7.99Z"/>
    <path class="cls-2" d="M694.85,614.89c39.88,3.33-12.45-6.2-11-31.07,3.59,19.42-12.69,69.38,11,31.07Z"/>
    <path class="cls-2" d="M817.6,676.13c4.45-44.25-34.79-12.5-62.03-16.25,1.59,11.97,19.08,23.12,18.57,38.11,13.83,2.46,48.76.29,43.46-21.86Z"/>
    <path class="cls-2" d="M851.65,612.5c.53-29.54-16.49-60.06-39.95-71.51-12.66,9.82,7.67-12.17,10.99-12.58,13.97-18.7,16.28-52.14,9.59-74.71-20.9-71.68-117.55-40.99-176.18-44.95-16.61,9.63,17.75,16.86,21.77,25.17,21.47,25.6-20.54,89.57,23.12,88.84,3.72,38.88,51.72,40.73,83.54,45.79,39.74,38.8,3.55,60.71,19.22,79.17,21.83-2.6,20.76,14.21,19.82,31.5,11.7,12.34,32.51-47.48,28.07-66.72ZM781.54,505.83c-6.34,1.26-3.06,3.78-1.8,6.79-6.12,6.88-17.19,17.45-26.77,9.99-34.39,25.9-37.9-105.53,3.19-72.91,25.77.37,48.72,30.8,25.38,56.13Z"/>
    <path class="cls-2" d="M765.41,687.79c-1.34-14.82-22.18-12.19-15.67-28.86-26.98-1.17-20.29-12.45-46.24,11.59,2.28,9.2,3.79,20.21,2.14,28.66,13.66-5.11,64.49,11.01,59.77-11.39Z"/>
    <path class="cls-2" d="M700.48,691.22c-15.86-37.06,44.33-37.42,30.13-75.33-3.59-8.76-6.31-53.22,2.35-51.46-34.36-6.41-52.09-76.56-51.48-8.26,11.22,66.24,39.68,38.95,36.44,66.58-36.13-9.49-36.33,32.5-40.44,61.66-2.8,9.78-21.91,7.54-16.78,18.77,11.85.85,39.08,3.06,39.78-11.96Z"/>
    <path class="cls-2" d="M932.32,497.92c-18.61-47.75-26.96-45.96-36.5,5.26-3.33,19.2-18.78,30.98-3.96,49.73-3.05,53.6,44.84-28.91,40.46-54.99Z"/>
    <path class="cls-2" d="M1007.62,457.81c62.44-47.25-93.5-49.74-59.51-9.22,4.97,16.39,42.45-26.51,59.51,9.22Z"/>
    <path class="cls-2" d="M1063.2,533.21c-1.94-17.58-5.6-34.44-4.35-52.38-3.79-11.69-22.79-42.88-23.23-15.67-10.75,29.96,1.05,58.89,1.13,93.39,20.84-5.87,52.04,44.33,26.45-25.34Z"/>
    <path class="cls-2" d="M941.94,625.47c-11.57-25.93-6.97-26.74-32.25-15.89-21.92-22.1-3.1,21.09-3.51,32.16,2.94,9.57,15.53,6.18,20.99,12.37,2.95,6.22,5.85,12.51,12.99,14.81,41.62,18.71,14.76-21.21,1.79-43.44Z"/>
    <path class="cls-2" d="M992.43,658.17c-21.62,66.69,116.95-50.66,53.22-57.7-28.62-8.27-17.81,56.25-53.22,57.7Z"/>
    <path class="cls-2" d="M1081.56,494.44c-91.03-227.39-281.93-1.84-181.16,161.2,101.68,142.85,225.39-45.99,181.16-161.2ZM1046.76,594.59c67.84,11.28-27.2,88.78-59.21,95.21-15.36.38,2.6-22.21-.97-30.36-35.21-4.38-6.73,51.17-60.9,5.06-1.77-9.35-9.03-7.66-15.79-10.92-13.65-10.07-15.23-37.22-18.58-51.81,15.33-9.38,24.17,5.23,39.17-8.64-5.85-33.42,1.75-61.21-27.47-18.7-26.85,35.76-10.29-10.85-24.6-44.99,19.23-31.24,28.73-136.75,53.17-44.89,52.21-36.13-54.63-49.43,46.45-70.75,17.46-2.73,65.82,7.75,47.96,32.45-17.02,8.3-11.68,41.46,3.77,30.29-1.52-12.42,2.62-22.09,6.4-33.33,10.26-8.28,33.72,41.19,27.69,54.19,2.42,27.18,22.25,56.99,8.44,84.37-7.03,5.19-8.38-13.75-18.46-8.81-14.69-30.29-35.27,24.81-7.07,21.61Z"/>
  </g>
</svg>