<?xml version="1.0" encoding="UTF-8"?>
<svg xmlns="http://www.w3.org/2000/svg" viewBox="0 0 409.52 291.17">
  <defs>
    <style>
      .cls-1 {
        fill: #7f3f98;
      }

      .cls-2 {
        fill: #fff;
      }

      .cls-3 {
        fill: #643278;
      }
    </style>
  </defs>
  <g id="Layer_2" data-name="Layer 2">
    <ellipse class="cls-2" cx="206.27" cy="95.15" rx="51.14" ry="41.33"/>
  </g>
  <g id="Layer_1" data-name="Layer 1">
    <g>
      <g>
        <path class="cls-3" d="M138.13,159.26c4.02-3.87,8.31-8.26,13.33-11.17,5.3-3.08,11.16-5.15,16.24-6.41,6.93-1.72,13.88-1.69,17.37,1.68s1.88,9.76.05,16.5c-1.33,4.91-2.92,10.38-6.13,15.49-3,4.77-6.12,9.75-10.09,13.58s-7.62,7.65-11.81,9.91c-4.91,2.65-10.55,2.2-15.07,2.67-5.72.59-10.88.52-14.32-2.78-4.89-4.71-4.87-12.67-1.75-21.08,2.28-6.15,6.24-12.66,12.18-18.39Z"/>
        <path class="cls-1" d="M160,185.39c2.32-5.02,4.61-10.74,8.23-15.21,3.82-4.72,8.68-8.62,12.97-11.54,5.8-3.95,12.05-5.61,16.53-3.69s7.39,7.6,8.21,14.44c.61,5.05.2,11.06-.89,16.96-1.02,5.53-4.4,10.46-6.7,15.44s-4.36,9.19-7.46,12.77c-3.62,4.18-7.25,7.56-11.32,9.54-5.08,2.48-9.88,2.98-14.28,1.1-6.27-2.69-10.65-9.37-10.91-18.22-.19-6.57,2.19-14.13,5.64-21.6Z"/>
        <path class="cls-3" d="M269.97,160.01c-4.02-3.87-7.81-8.64-12.82-11.55-5.3-3.08-11.17-4.59-16.25-5.84-6.93-1.72-13.67-2.65-17.16.72s-3.89,10.33-2.06,17.07c1.33,4.91,5.03,9.78,8.25,14.89,3,4.77,6.05,9.79,10.02,13.62s8.04,6.84,12.24,9.11c4.91,2.65,9.87,5.24,14.39,5.71,5.72.59,10.44-2.39,13.87-5.7,4.89-4.71,5.54-11.97,2.43-20.38-2.28-6.15-6.96-11.91-12.9-17.64Z"/>
        <path class="cls-1" d="M242.28,191.13c-1.37-5.34-1.86-11.35-4.61-16.36-2.91-5.3-7.18-9.47-10.88-13.08-4.99-4.85-9.72-7.14-14.48-6s-7.39,5.44-9.45,12.01c-1.52,4.86-4.79,10.38-4.79,16.38,0,5.64,3.12,11.19,4.48,16.5,1.32,5.13,2.65,9.89,5.06,13.94,2.81,4.74,5.46,9.38,9.12,12.02,4.54,3.28,9.92,4.09,14.58,2.97,6.65-1.59,12.58-7.69,14.45-16.32,1.4-6.45-1.43-14.1-3.47-22.06Z"/>
        <g>
          <path class="cls-1" d="M188.42,95.88c.32-10.83-13.66-17-18.78-5.99,6.42-5.1,11.49,7.31,3.04,7.73-15.92-3.86,13.82,25.13,15.73-1.73Z"/>
          <path class="cls-1" d="M118.67,74.98c0,41.4,38.84,91.09,86.74,91.09V.01C157.5.01,118.67,33.58,118.67,74.98ZM181.42,108.73c-8.92.9-19.75-2.2-19.65-12.85,5.04-33.08,57.69,3.55,19.65,12.85Z"/>
        </g>
        <g>
          <path class="cls-1" d="M203.41.01v166.05C309.34,160.3,322.01-1.78,203.41.01ZM233.73,108.73c-19.88,5.31-28.91-23.72-6.7-25.69,19.88-5.3,28.91,23.72,6.7,25.69Z"/>
          <path class="cls-1" d="M240.35,95.88c.31-9.83-12.11-16.98-17.76-7.03,6.38-1.22,7.42,8.78.87,8.77-10.88,5.27,18.3,18.59,16.9-1.73Z"/>
        </g>
      </g>
      <g>
        <path class="cls-1" d="M33,255.37v.18c0,.3-.04.79-.12,1.45-.08.66-.21,1.36-.4,2.11-.18.74-.41,1.46-.67,2.15-.26.69-.58,1.23-.95,1.62-.35.35-.81.58-1.39.7s-1.13.27-1.66.46c-.43.16-.88.38-1.36.64-.48.26-.96.52-1.43.76-.48.24-.96.46-1.43.64-.48.18-.94.27-1.39.27-.31,0-.65-.08-1.02-.23-.38-.15-.73-.4-1.05-.75-.33-.35-.6-.79-.81-1.34-.21-.55-.32-1.23-.32-2.04,0-.51.02-1.04.06-1.59.04-.55.06-1.09.06-1.62,0-.57-.05-1.22-.14-1.94-.09-.72-.22-1.4-.38-2.03-.16-.63-.35-1.17-.55-1.6-.2-.44-.43-.66-.67-.66-.18,0-.39.04-.63.12s-.5.12-.81.12c-.37,0-.65-.04-.84-.12-.19-.08-.35-.17-.47-.26s-.23-.18-.34-.26c-.1-.08-.24-.12-.43-.12-.49,0-.86.11-1.11.32-.25.21-.44.5-.56.87s-.22.78-.29,1.25c-.07.47-.18.95-.32,1.43-.1.35-.29.73-.55,1.16-.26.43-.46.88-.58,1.34-.16.47-.3.98-.4,1.54-.1.56-.24,1.13-.43,1.72-.16.51-.35,1.15-.56,1.92-.21.77-.42,1.59-.63,2.44-.2.86-.38,1.71-.52,2.56-.14.85-.21,1.61-.21,2.26,0,.94.31,1.85.92,2.73.61.88,1.4,1.62,2.38,2.21.28.16.69.3,1.21.41.52.11,1.01.28,1.48.5.45.22.83.44,1.16.66.33.21.67.41,1.04.58.37.17.8.32,1.3.43.5.11,1.14.17,1.94.17.73,0,1.48-.08,2.24-.23.76-.15,1.49-.35,2.18-.6.69-.24,1.32-.52,1.89-.82.57-.31,1.03-.61,1.37-.92.12-.1.32-.32.6-.66s.6-.69.96-1.05.77-.7,1.22-.99c.45-.29.93-.44,1.43-.44.1,0,.26.03.47.08s.43.15.64.31c.21.15.4.37.56.66s.24.65.24,1.1c0,.59-.08,1.2-.24,1.83-.16.63-.24,1.23-.24,1.8,0,.25.01.55.03.92.02.37.03.72.03,1.07,0,.71-.22,1.43-.66,2.17-.44.73-1.21,1.5-2.3,2.29-.35.24-.77.46-1.28.66-.51.19-1,.43-1.47.72-.49.31-1.01.61-1.56.92-.55.31-.99.46-1.31.46-.31,0-.62-.04-.95-.12-.33-.08-.69-.12-1.1-.12-.65,0-1.29.02-1.91.06-.62.04-1.26.06-1.91.06-.33,0-.69,0-1.08-.02-.4,0-.8-.03-1.21-.06-.41-.03-.81-.07-1.21-.11s-.76-.09-1.08-.15c-.24-.02-.52-.05-.84-.08s-.63-.06-.93-.09-.58-.06-.81-.09c-.23-.03-.39-.07-.47-.11-.14-.06-.27-.17-.4-.34-.12-.16-.25-.35-.38-.56-.13-.21-.27-.43-.43-.64-.15-.21-.34-.41-.56-.6-.24-.18-.52-.31-.82-.38-.31-.07-.55-.19-.73-.35-.24-.33-.52-.68-.84-1.07-.32-.39-.62-.74-.9-1.07-.33-.51-.58-1.04-.76-1.59-.18-.55-.43-1-.73-1.34-.12-.12-.29-.24-.5-.35-.21-.11-.44-.23-.69-.37-.24-.13-.48-.28-.72-.43s-.43-.33-.6-.53c-.08-.06-.2-.22-.35-.49-.15-.26-.31-.54-.46-.82-.15-.29-.29-.53-.4-.75-.11-.21-.17-.3-.17-.26,0-.12.05-.28.14-.47.09-.19.2-.39.32-.6.12-.2.23-.41.32-.61.09-.2.14-.38.14-.52,0-.35-.05-.66-.15-.93-.1-.27-.17-.58-.21-.93,0-.69.03-1.59.09-2.7s.16-2.29.29-3.56c.13-1.26.29-2.53.49-3.8.19-1.27.42-2.43.69-3.46.22-.81.48-1.65.76-2.5s.43-1.66.43-2.41c0-.26-.02-.53-.06-.79-.04-.26-.06-.53-.06-.79,0-.55.16-.98.49-1.28.33-.3.72-.57,1.19-.81.47-.23.97-.46,1.5-.69.53-.22,1-.54,1.4-.95.1-.12.18-.29.24-.52.06-.22.11-.45.15-.67.04-.22.08-.44.12-.66.04-.21.11-.37.21-.47.06-.08.15-.13.26-.15s.24-.04.4-.06c.15-.02.33-.06.52-.11.19-.05.39-.14.6-.26.2-.12.36-.25.47-.38.11-.13.22-.25.32-.35.1-.1.22-.18.37-.24.14-.06.34-.08.58-.06.22,0,.45,0,.69.03.23.02.44.03.63.03.31,0,.63,0,.96-.03.34-.02.68-.03,1.02-.03.57,0,1.04.06,1.4.18.37.12.69.26.98.41.28.15.56.31.82.47.26.16.6.29,1.01.37.55.1,1.1.16,1.66.17.56,0,1.1.02,1.63.03.53.01,1.05.05,1.57.12s1.02.21,1.51.41c.28.12.58.34.9.66.31.32.66.62,1.02.9.35.26.72.49,1.11.69.4.19.68.4.84.63.12.22.23.56.32,1.01.09.45.23.82.41,1.13.18.33.41.67.69,1.02.27.36.54.73.81,1.13.26.4.49.82.67,1.28.18.46.29.94.34,1.45Z"/>
        <path class="cls-1" d="M65.02,267.79c.04.47.07.94.09,1.42.02.48.03.97.03,1.48,0,1.44-.07,2.9-.21,4.38s-.31,2.91-.49,4.29c-.06.45-.14.9-.23,1.36-.09.46-.14.86-.14,1.21,0,.75.07,1.48.21,2.18.14.7.21,1.35.21,1.94,0,.12-.08.4-.24.82-.16.43-.42.86-.78,1.31-.36.45-.81.85-1.37,1.21-.56.36-1.24.53-2.03.53-.92,0-1.53-.26-1.85-.79s-.47-1.2-.47-2.01c0-.57.05-1.19.15-1.85.1-.66.21-1.34.34-2.03-.47.1-.93.3-1.39.58-.46.29-.89.55-1.3.79-.9.53-1.79,1.09-2.67,1.68s-1.85,1.13-2.88,1.62c-1.04.49-2.17.89-3.4,1.22-1.23.33-2.64.49-4.23.49-.04,0-.2,0-.47.02-.27,0-.6,0-.96-.02s-.75-.07-1.15-.15c-.4-.08-.75-.21-1.05-.4-.45-.45-.88-1-1.3-1.66-.42-.66-.78-1.31-1.1-1.95-.32-.64-.56-1.21-.75-1.69s-.27-.78-.27-.89c-.04-.1-.06-.2-.06-.29v-.29c0-.43.03-.87.09-1.33s.13-.9.21-1.31c.08-.42.15-.77.21-1.07s.09-.49.09-.6c0-.51-.04-1-.12-1.48-.08-.48-.12-1-.12-1.57,0-.26.02-.54.05-.84.03-.29.1-.61.2-.93,0-.02.05-.15.15-.4.1-.24.22-.51.35-.79.13-.28.26-.56.4-.82.13-.26.23-.42.29-.46.14-.12.34-.22.58-.31s.52-.16.82-.24.62-.16.93-.24c.31-.08.63-.19.93-.34.47-.22.89-.51,1.27-.85.38-.35.72-.58,1.02-.7.2-.1.48-.18.84-.24.36-.06.73-.17,1.11-.34.26-.08.59-.2.98-.35.39-.15.8-.29,1.24-.43.44-.13.88-.25,1.33-.37.45-.11.87-.19,1.28-.23.18,0,.41.03.69.09.27.06.61.09.99.09.28,0,.63-.06,1.04-.18.41-.12.9-.18,1.47-.18s1.12.04,1.65.12c.53.08.94.12,1.22.12.22,0,.36-.07.41-.2s.08-.29.08-.47c0-.3-.06-.66-.18-1.07-.12-.41-.26-.8-.43-1.19-.16-.39-.32-.72-.46-1.01-.14-.29-.24-.47-.31-.55-.31-.39-.65-.68-1.02-.88-.38-.2-.72-.31-1.02-.31-.33,0-.65.04-.96.12-.32.08-.67.12-1.05.12-.29,0-.58-.02-.87-.06s-.58-.06-.87-.06c-.69,0-1.49.17-2.4.52-.91.35-1.81.74-2.72,1.19-.91.45-1.76.87-2.56,1.27-.8.4-1.45.66-1.94.78-.26.06-.54.12-.82.17s-.56.08-.82.08c-.16,0-.39-.09-.69-.26-.3-.17-.59-.39-.87-.66-.29-.26-.53-.56-.75-.9-.21-.34-.32-.67-.32-.99,0-.49.13-.89.4-1.21.26-.31.59-.58.98-.81.39-.22.81-.42,1.27-.59s.87-.37,1.24-.6c.47-.28,1.02-.62,1.65-1.01s1.17-.75,1.62-1.1c.47-.39.8-.74,1.01-1.05.2-.32.45-.55.73-.72.28-.16.73-.31,1.34-.46.61-.14,1.18-.29,1.71-.46.16-.06.39-.15.69-.28s.6-.23.92-.33c.31-.1.62-.19.92-.28.29-.08.52-.12.69-.12h.12c.39.14.82.25,1.31.32.49.07,1,.14,1.54.2.54.06,1.08.13,1.62.2.54.07,1.05.17,1.54.29.16.04.32.13.46.26.14.13.29.23.46.29.75.22,1.38.45,1.89.69.51.23.96.6,1.34,1.1.39.5.75,1.21,1.08,2.14.34.93.71,2.18,1.11,3.77.08.37.23.7.46,1.01.22.3.39.61.49.92.16.51.29,1.12.38,1.85.09.72.16,1.4.2,2.03ZM57.69,275.94c.1-.1.17-.33.2-.69.03-.36.05-.76.05-1.21,0-.53-.01-.96-.03-1.3-.02-.33-.06-.59-.12-.78-.06-.18-.14-.31-.24-.38-.1-.07-.23-.11-.4-.11-.12,0-.23.01-.32.03-.09.02-.18.04-.26.06-.08.04-.16.07-.24.09-.33-.04-.63-.06-.9-.06h-.84c-.57,0-1.09.03-1.57.09-.48.06-.95.14-1.4.24-.46.1-.91.21-1.36.34-.45.12-.93.23-1.43.34-.73.18-1.4.3-2.01.37-.61.06-1.14.18-1.59.37-.45.18-.79.47-1.04.87-.24.4-.37,1.01-.37,1.85s.22,1.43.67,1.72,1.1.44,1.95.44c.26,0,.57-.05.92-.14.35-.09.72-.2,1.11-.32.4-.12.8-.25,1.22-.38.42-.13.84-.25,1.27-.35.31-.06.64-.13.99-.2s.71-.14,1.07-.2c.36-.06.69-.12,1.01-.18.32-.06.58-.11.81-.15.14-.02.37-.05.67-.08.31-.03.61-.06.92-.09s.58-.06.84-.09c.25-.03.4-.07.44-.11Z"/>
        <path class="cls-1" d="M93.71,254.48c-.14.22-.41.45-.81.67-.4.22-.87.44-1.4.64s-1.12.4-1.74.58c-.62.18-1.22.34-1.8.47-.58.13-1.12.24-1.62.32-.5.08-.88.12-1.14.12-.61,0-1.07-.25-1.37-.73s-.52-1.1-.66-1.83c-.13-.73-.22-1.52-.26-2.37-.04-.84-.12-1.63-.23-2.37-.11-.73-.29-1.34-.53-1.83s-.64-.73-1.19-.73c-.1,0-.34.05-.7.14s-.75.19-1.16.29c-.49.12-1.02.26-1.59.43-.08.1-.14.26-.18.47-.04.21-.08.45-.11.72-.03.26-.05.52-.06.78-.01.25-.02.47-.02.66,0,.39.11.78.34,1.17.22.4.47.81.75,1.25.27.44.53.9.76,1.37.23.48.35.98.35,1.51,0,.3.04.56.11.78.07.21.15.4.23.56.08.16.16.3.23.43.07.12.11.25.11.37,0,.04-.02.15-.05.32-.03.17-.06.37-.09.59-.03.22-.06.45-.08.69-.02.23-.03.43-.03.59,0,.22.04.35.11.38s.21.05.41.05c.28,0,.67-.06,1.16-.18s.98-.25,1.48-.38c.5-.13.96-.26,1.39-.38s.72-.18.89-.18c.92,0,1.86.09,2.84.26s1.78.36,2.41.56c.39.14.7.23.93.26s.41.13.52.3c.11.17.18.47.21.89.03.42.05,1.08.05,2,0,.51,0,.96-.02,1.34s-.13.71-.37.98c-.23.26-.64.46-1.22.59-.58.13-1.43.2-2.55.2-.65,0-1.19.05-1.6.15s-.81.21-1.17.32c-.37.11-.74.22-1.11.32-.38.1-.85.15-1.42.15-.1,0-.27-.03-.52-.09-.24-.06-.42-.09-.52-.09s-.18.06-.24.18-.11.28-.15.46c-.04.18-.07.38-.09.58-.02.2-.03.4-.03.58,0,.49.04,1.03.11,1.62s.16,1.16.26,1.69c.1.54.19,1.02.27,1.45.08.43.14.73.18.92.06.45.09.91.09,1.39s.03.93.09,1.36c.1.65.24,1.4.41,2.26.17.85.26,1.67.26,2.44,0,1.22-.42,2.16-1.27,2.81-.84.65-2.32,1.05-4.41,1.19-.22.02-.42.05-.58.09-.16.04-.32.09-.46.14-.14.05-.29.1-.43.14-.14.04-.32.06-.52.06-.79,0-1.51-.18-2.15-.55-.64-.37-1.18-.84-1.62-1.42-.44-.58-.77-1.23-1.01-1.94-.23-.71-.35-1.42-.35-2.14s.03-1.44.09-2.2.09-1.51.09-2.26v-1.19c0-.37.01-.71.03-1.02.02-.31.05-.64.09-.96.04-.33.1-.68.17-1.05.07-.38.16-.82.26-1.33,0-.02.04-.14.11-.35s.15-.47.24-.76c.09-.29.17-.61.24-.93.07-.33.11-.62.11-.88,0-.33-.08-.54-.23-.66-.15-.11-.39-.17-.72-.17-.16,0-.34.01-.52.03-.18.02-.39.03-.61.03-.26,0-.54-.08-.84-.25-.29-.16-.56-.39-.81-.67-.24-.29-.45-.63-.61-1.02-.16-.4-.24-.83-.24-1.3,0-.37.12-.64.35-.81.23-.17.53-.29.9-.37s.75-.12,1.16-.15c.41-.03.79-.09,1.16-.18.37-.09.67-.24.9-.44.23-.2.35-.51.35-.92,0-.51-.04-1.01-.12-1.51s-.18-.97-.29-1.42c-.11-.45-.21-.86-.29-1.24-.08-.38-.12-.7-.12-.96,0-.98.05-1.9.14-2.76.09-.86.14-1.75.14-2.64,0-.59-.05-1.15-.14-1.68-.09-.53-.14-1.05-.14-1.56,0-.9.27-1.7.81-2.41.54-.71,1.22-1.34,2.05-1.88.82-.54,1.73-1,2.73-1.39,1-.39,1.96-.7,2.88-.95s1.76-.42,2.49-.53c.73-.11,1.25-.17,1.56-.17,1.59,0,2.92.12,3.98.35,1.07.23,1.95.62,2.66,1.16.7.54,1.25,1.26,1.63,2.15.39.9.69,2,.92,3.3.08.43.2.88.37,1.36.16.48.33.95.49,1.42.16.47.31.94.44,1.42.13.48.2.93.2,1.36,0,.29-.02.55-.06.81-.04.25-.14.5-.31.75Z"/>
        <path class="cls-1" d="M125.64,276.25c.16.65.29,1.19.37,1.62.08.43.12.8.12,1.13,0,.29-.04.53-.11.73-.07.2-.19.4-.37.59-.17.19-.4.39-.69.6-.29.2-.64.44-1.07.7s-.78.5-1.05.72c-.27.21-.53.4-.78.55s-.5.27-.76.35c-.26.08-.59.12-.98.12-.81,0-1.5-.25-2.05-.76-.55-.51-.82-1.25-.82-2.23,0-.28.01-.62.03-1.01.02-.39.03-.78.03-1.19,0-.53-.03-1.01-.09-1.45s-.2-.66-.43-.66c-.14,0-.4.07-.78.2-.38.13-.8.31-1.28.52-.48.21-.98.44-1.51.67-.53.23-1.02.46-1.48.67-.46.21-.85.4-1.17.55-.33.15-.52.24-.58.26-.16.04-.33.07-.49.09-.16.02-.36.03-.58.03-.29,0-.59,0-.92-.03s-.66-.03-1.01-.03c-.71,0-1.4.08-2.06.23-.66.15-1.3.32-1.92.49-.62.17-1.23.34-1.83.49-.6.15-1.19.23-1.75.23-.79,0-1.46-.22-2-.66-.54-.44-.99-1.01-1.36-1.71s-.66-1.5-.87-2.38c-.21-.88-.37-1.78-.47-2.69-.1-.9-.17-1.76-.2-2.58-.03-.81-.05-1.52-.05-2.11,0-.37.05-.74.14-1.13.09-.39.19-.76.31-1.13.11-.37.21-.72.31-1.05.09-.34.14-.66.14-.96,0-.47-.02-.95-.06-1.43-.04-.49-.06-.99-.06-1.5,0-.75.14-1.57.41-2.46.27-.88.55-1.77.84-2.67.2-.63.37-1.18.49-1.66.12-.48.29-.88.5-1.21.21-.33.51-.57.89-.75.38-.17.91-.26,1.6-.26.16,0,.44.03.82.09.39.06.83.14,1.33.24s1.02.22,1.56.35c.54.13,1.05.28,1.53.44.48.16.89.33,1.24.5.35.17.57.34.67.5.12.22.2.47.24.73.04.26.06.54.06.82,0,.43-.04.87-.11,1.31-.07.45-.15.88-.23,1.28-.08.41-.16.78-.23,1.13-.07.35-.11.63-.11.86s.03.47.09.73.09.54.09.82c-.04.3-.12.61-.23.92-.11.31-.19.58-.23.82,0,.45.05.97.14,1.56.09.59.14,1.18.14,1.77,0,.31-.03.59-.08.84-.05.25-.11.5-.17.73-.06.23-.12.44-.17.63-.05.18-.07.35-.05.49.02.43.05.77.08,1.04.03.26.09.47.18.61.09.14.21.23.35.27.14.04.34.06.58.06.85,0,1.71-.02,2.56-.06.85-.04,1.67-.11,2.46-.21.78-.1,1.51-.23,2.17-.38.66-.15,1.23-.35,1.69-.6.18-.18.31-.5.38-.95.07-.45.11-.92.12-1.42,0-.5,0-.97-.03-1.4-.03-.44-.05-.74-.05-.9,0-2.08-.07-3.83-.21-5.25-.14-1.42-.21-2.49-.21-3.21,0-.18.05-.43.15-.73.1-.3.25-.6.44-.88s.44-.53.75-.75.67-.32,1.1-.32.83.07,1.22.2c.39.13.73.31,1.02.52.29.21.53.46.72.73.18.27.27.56.27.87,0,.24-.02.53-.06.86-.04.33-.06.64-.06.95,0,.55.05,1.16.15,1.82.1.66.22,1.32.35,1.97.13.65.25,1.28.35,1.89.1.61.15,1.14.15,1.59s-.04.91-.12,1.33c-.08.42-.12.83-.12,1.24,0,.49.08.93.24,1.31.16.39.35.75.56,1.08.21.34.43.65.66.93.22.29.4.57.52.85.16.41.29.94.38,1.59.09.65.22,1.29.38,1.92Z"/>
        <path class="cls-1" d="M156.65,273.74c0,.69-.06,1.37-.18,2.05-.12.67-.18,1.32-.18,1.95,0,.41.03.81.09,1.21.06.4.09.79.09,1.17,0,.08-.04.25-.12.52-.08.27-.21.56-.38.89-.17.33-.4.65-.67.96-.27.32-.6.54-.96.69-.24.1-.52.16-.84.18-.32.02-.65.04-1.01.05-.36.01-.72.02-1.1.03-.38,0-.75.04-1.11.11-.51.1-.95.21-1.33.34-.38.12-.77.18-1.18.18-.73,0-1.29-.2-1.66-.59-.38-.4-.65-.89-.82-1.48s-.28-1.21-.32-1.86c-.04-.65-.08-1.24-.12-1.77-.06-.69-.14-1.3-.24-1.82-.1-.52-.17-1.01-.21-1.48,0-.28.02-.55.05-.79.03-.24.05-.48.05-.7,0-.53-.03-1.02-.09-1.48s-.19-.85-.4-1.18c-.2-.33-.51-.58-.93-.76-.42-.18-.97-.27-1.66-.27-.49,0-1.02.07-1.59.2-.57.13-1.1.34-1.59.63s-.9.64-1.22,1.07c-.33.43-.49.93-.49,1.5,0,.22.05.47.14.73.09.26.14.56.14.89,0,.57-.07,1.16-.2,1.75-.13.6-.2,1.18-.2,1.72,0,.85.07,1.65.2,2.38.13.73.2,1.36.2,1.89,0,.71-.04,1.33-.11,1.86s-.21.97-.41,1.31c-.2.35-.49.61-.87.79-.38.18-.86.27-1.45.27-.94,0-1.66-.22-2.17-.67-.51-.45-.76-1.14-.76-2.08,0-.35,0-.71.03-1.08.02-.38.03-.77.03-1.17,0-.55-.06-1.01-.18-1.37-.12-.37-.27-.72-.44-1.07-.17-.35-.36-.72-.55-1.11-.19-.4-.36-.9-.5-1.51-.04-.06-.06-.13-.06-.21v-.27c0-.22.01-.48.03-.78.02-.29.03-.6.03-.9,0-.81-.05-1.69-.15-2.62-.1-.94-.22-1.89-.35-2.87-.13-.98-.25-1.94-.35-2.88-.1-.95-.15-1.85-.15-2.7,0-.75.16-1.37.49-1.86.33-.49.74-.88,1.25-1.16.51-.29,1.07-.48,1.68-.58s1.2-.15,1.77-.15c1.1,0,1.98.29,2.64.87.66.58.99,1.3.99,2.15,0,.29-.02.58-.06.9-.04.32-.06.64-.06.96,0,.22.04.48.11.76.07.29.22.43.44.43s.61-.08,1.15-.23c.54-.15,1.11-.33,1.71-.53.6-.2,1.15-.39,1.66-.55s.84-.26,1.01-.31c.77-.14,1.44-.2,2.01-.18s1.1-.05,1.59-.21c.47-.12.85-.24,1.15-.37.29-.12.57-.23.82-.34s.52-.18.79-.24c.27-.06.63-.09,1.05-.09.69,0,1.19.08,1.51.23.32.15.55.35.72.58.16.23.29.49.4.78.1.29.27.56.52.82.31.35.63.63.96.86s.64.44.92.64c.27.2.5.43.67.67.17.24.26.55.26.92,0,.29-.04.58-.12.89-.08.31-.12.67-.12,1.1,0,.53.06,1.09.18,1.68.12.59.18,1.18.18,1.77Z"/>
        <path class="cls-1" d="M192.09,280.37c.06.81.15,1.57.26,2.26.11.69.17,1.33.17,1.92,0,.49-.08.97-.23,1.44-.15.47-.42.88-.79,1.24-.38.36-.88.65-1.5.87s-1.4.34-2.34.34c-1.26,0-2.25-.07-2.98-.21s-1.26-.39-1.6-.73-.56-.79-.64-1.34c-.08-.55-.12-1.24-.12-2.08,0-.35.02-.7.05-1.07.03-.37.06-.74.11-1.13-.79.22-1.61.42-2.46.59-.84.17-1.85.37-3.01.6-.41.06-.79.2-1.16.43-.37.22-.72.34-1.07.34-.22,0-.46-.03-.72-.09-.26-.06-.49-.09-.72-.09-.53,0-1.07.09-1.63.27-.56.18-1.04.27-1.45.27-.37,0-.78-.09-1.24-.27-.46-.18-1-.27-1.63-.27h-1.07c-.81,0-1.62-.18-2.41-.55-.79-.37-1.51-.78-2.14-1.24s-1.14-.9-1.54-1.31c-.4-.42-.6-.68-.6-.78-.04-.06-.08-.23-.12-.52-.04-.29-.08-.59-.11-.92-.03-.33-.06-.63-.09-.92-.03-.28-.05-.47-.05-.55-.04-.31-.06-.61-.06-.92v-.89c0-.61.02-1.2.06-1.75.04-.56.09-1.12.15-1.69.06-.57.11-1.15.15-1.74.04-.59.06-1.21.06-1.86,0-.33-.01-.66-.03-.99-.02-.34-.03-.68-.03-1.02,0-.29.03-.52.08-.72.05-.19.11-.37.17-.53.06-.16.13-.32.2-.47.07-.15.13-.33.17-.53.1-.24.14-.52.11-.84-.03-.32.03-.62.17-.9.04-.16.13-.33.26-.5.13-.17.29-.36.46-.56.17-.2.35-.41.52-.61.17-.2.32-.42.44-.64.18-.33.33-.65.44-.96.11-.32.22-.61.32-.88.1-.28.21-.52.34-.73.12-.21.27-.37.46-.47.12-.08.33-.15.61-.21.28-.06.6-.13.95-.2.35-.07.71-.14,1.08-.2.38-.06.73-.13,1.05-.21.92-.22,2.03-.41,3.34-.56,1.31-.15,2.6-.23,3.86-.23.89,0,1.69.09,2.38.28.69.18,1.34.39,1.94.62.6.23,1.18.47,1.74.72.56.24,1.17.43,1.82.55.1-.77.18-1.71.23-2.81.05-1.1.08-2.23.08-3.39,0-.61-.03-1.22-.08-1.83-.05-.61-.11-1.21-.18-1.79-.07-.58-.13-1.12-.18-1.62-.05-.5-.08-.94-.08-1.33,0-.26.07-.6.21-.99s.34-.77.6-1.13c.25-.36.56-.66.92-.92s.75-.38,1.18-.38c.32,0,.67.07,1.04.2.37.13.7.3,1.01.49.3.19.56.42.76.67.2.25.3.5.3.75,0,.26-.04.53-.12.79-.08.26-.12.57-.12.92.04.31.16.64.35,1.01s.32.73.38,1.1c.12.47.19,1.11.2,1.92.01.81.02,1.71.03,2.7,0,.99.04,2.02.08,3.1.04,1.08.15,2.12.34,3.11.06.37.17.69.32.96s.32.55.49.82c.17.27.32.57.44.88.12.32.18.7.18,1.15,0,.37-.02.76-.06,1.17s-.06.88-.06,1.39c.06,1.18.14,2.44.24,3.77.1,1.33.22,2.7.35,4.11.13,1.4.26,2.81.4,4.23s.26,2.79.38,4.14ZM183.03,265.29c-.1-.12-.31-.2-.63-.23-.31-.03-.69-.05-1.11-.06-.43,0-.9-.03-1.4-.06-.51-.03-1.01-.1-1.5-.2-.29-.06-.51-.13-.69-.21-.17-.08-.33-.16-.47-.23s-.29-.13-.46-.18c-.16-.05-.37-.08-.61-.08-.77,0-1.52.05-2.24.14-.72.09-1.29.28-1.69.56-.2.16-.4.47-.6.92-.19.45-.36.99-.5,1.62s-.25,1.3-.33,2.01c-.08.71-.12,1.4-.12,2.08,0,1.32.16,2.26.47,2.81.32.55.9.82,1.76.82.39,0,.79-.05,1.22-.14s.85-.19,1.27-.3c.42-.11.8-.22,1.14-.34.35-.11.64-.19.88-.23.22-.02.62-.07,1.19-.14.57-.07,1.16-.15,1.76-.24.6-.09,1.14-.19,1.63-.29s.77-.21.86-.34c.06-.06.11-.2.14-.43.03-.22.05-.48.05-.76,0-.26-.01-.55-.03-.87s-.04-.61-.06-.88c-.02-.28-.04-.51-.06-.72-.02-.2-.03-.34-.03-.4,0-.02.02-.12.06-.31s.08-.41.12-.67c.04-.26.08-.55.12-.85.04-.3.06-.59.06-.85,0-.41-.06-.72-.18-.95Z"/>
        <path class="cls-1" d="M221.4,268.31c0,.12.01.23.03.34.02.1.03.21.03.34,0,.47-.06.95-.17,1.43-.11.49-.25.98-.41,1.47-.16.49-.33.98-.49,1.48-.16.5-.29,1-.37,1.51-.04.2-.06.43-.06.69v.78c0,.26,0,.52-.03.76s-.05.46-.09.64c-.1.51-.3,1.06-.61,1.65-.3.59-.6,1.15-.88,1.68-.43.79-.81,1.46-1.14,2-.34.54-.73.98-1.19,1.31-.46.33-1.03.58-1.73.72-.69.14-1.61.21-2.75.21-.98,0-1.96-.05-2.96-.15s-1.96-.24-2.9-.43c-.94-.18-1.81-.39-2.62-.63-.81-.23-1.52-.48-2.11-.75-.69-.3-1.24-.63-1.65-.98-.41-.35-.76-.76-1.05-1.25-.3-.49-.57-1.09-.81-1.82s-.55-1.62-.92-2.7c-.18-.55-.37-1.09-.57-1.62s-.36-1.06-.5-1.6c-.14-.54-.25-1.08-.34-1.62-.08-.54-.11-1.09-.09-1.66,0-.33.03-.71.08-1.14s.12-.88.2-1.31c.08-.44.17-.85.28-1.25.1-.4.21-.72.34-.96.1-.24.22-.45.35-.61.13-.16.26-.33.38-.49s.22-.33.3-.49.12-.37.12-.61c0-.18-.02-.34-.06-.47-.04-.13-.09-.26-.15-.38-.06-.12-.11-.25-.15-.38-.04-.13-.06-.28-.06-.44,0,.02.05-.09.14-.34.09-.24.22-.54.38-.9.16-.36.36-.74.6-1.16.23-.42.49-.8.76-1.16.27-.36.58-.66.92-.9s.68-.37,1.02-.37h.95c.28,0,.63.03,1.04.09.41.06.85.12,1.33.18.48.06.99.12,1.53.18.54.06,1.07.09,1.6.09.94,0,1.88-.03,2.84-.09.96-.06,1.86-.09,2.72-.09,1.22,0,2.15.15,2.79.46.64.3,1.12.69,1.43,1.14s.54.96.67,1.5c.13.54.31,1.05.53,1.54.16.37.45.76.85,1.18s.77.92,1.1,1.51c.16.29.26.63.31,1.04.04.41.14.76.31,1.07.16.45.35.79.56,1.02.21.23.34.48.38.75ZM214.1,269.87c.04-.41.08-.95.12-1.63.04-.68.06-1.35.06-2,0-.33-.04-.72-.12-1.17-.08-.46-.25-.9-.52-1.31-.26-.42-.65-.77-1.14-1.07-.5-.29-1.16-.44-1.97-.44-.51,0-1.03.05-1.57.15-.54.1-1.06.15-1.57.15-.24,0-.5,0-.76-.03-.26-.02-.53-.03-.79-.03-.71,0-1.29.15-1.74.44-.45.29-.79.69-1.04,1.19-.24.5-.41,1.08-.5,1.75s-.14,1.38-.14,2.14c0,.98.04,1.79.11,2.44.07.65.19,1.19.35,1.62.16.43.37.77.61,1.02.24.25.55.47.92.66.33.12.59.18.79.18s.46.06.76.18c.18.06.33.15.43.26.1.11.2.22.29.34.09.11.19.21.3.29.11.08.25.12.41.12.14,0,.3,0,.47-.03s.35-.03.53-.03c.24,0,.46.04.64.12.18.08.34.18.47.29.13.11.25.21.37.29.11.08.23.12.35.12.06-.02.27-.12.63-.3.36-.18.74-.39,1.14-.63.41-.23.78-.45,1.11-.66s.51-.33.53-.37c.1-.16.18-.42.23-.78.05-.36.09-.74.12-1.14.03-.41.05-.8.06-1.19,0-.39.03-.7.05-.95ZM218.59,249.6c-.16.49-.51.91-1.04,1.27s-1.09.65-1.69.87-1.16.4-1.68.53c-.52.13-.85.22-.99.26-.51.1-.97.26-1.37.47-.41.21-.79.44-1.16.67-.37.23-.71.44-1.04.61s-.67.26-1.04.26c-.24,0-.51-.06-.79-.17-.29-.11-.55-.25-.81-.41-.25-.16-.47-.35-.64-.56s-.26-.42-.26-.63c0-.33.13-.71.4-1.14.26-.44.58-.87.95-1.3.37-.43.73-.82,1.08-1.18.36-.36.63-.62.81-.81.35-.39.69-.75,1.02-1.08s.62-.65.87-.93c.29-.3.54-.63.78-.98.23-.35.5-.66.79-.93.29-.28.63-.5,1.01-.69.38-.18.85-.27,1.42-.27.33,0,.7.14,1.11.43s.81.67,1.18,1.14c.37.48.67,1.02.92,1.63s.37,1.23.37,1.86c0,.41-.06.76-.18,1.07Z"/>
        <path class="cls-1" d="M275.15,272.31c-.1.12-.28.23-.53.32-.25.09-.53.18-.82.26-.3.08-.58.16-.86.23-.27.07-.49.14-.66.2-.45.14-.85.26-1.21.37-.36.1-.66.22-.9.35-.24.13-.43.29-.57.46-.13.17-.2.4-.2.69,0,.26.03.55.09.87.06.32.12.63.18.93.06.3.12.6.18.88.06.29.09.54.09.76s-.01.43-.03.61c-.02.18-.03.36-.03.52,0,.29.05.52.15.72.1.19.22.39.37.58.14.19.29.39.46.6.16.2.29.45.4.73.1.22.21.56.34,1.02s.24.96.35,1.51c.11.55.2,1.11.28,1.68.07.57.11,1.1.11,1.59,0,.71-.14,1.27-.41,1.66-.27.4-.62.69-1.04.88s-.87.32-1.34.37c-.48.05-.92.08-1.33.08-.65,0-1.27-.18-1.86-.53-.59-.36-1.11-.84-1.56-1.45-.45-.61-.8-1.32-1.07-2.12s-.4-1.66-.4-2.58v-.55c0-.2.02-.42.06-.64-.43.04-.73.17-.9.4-.17.22-.3.49-.38.81-.08.32-.16.65-.23.99-.07.35-.21.66-.41.95-.26.37-.72.75-1.36,1.15-.64.4-1.35.75-2.12,1.07-.77.31-1.56.57-2.35.78-.79.2-1.48.3-2.04.3-.61,0-1.08-.11-1.42-.34-.33-.22-.64-.46-.92-.72-.28-.25-.58-.49-.92-.72s-.8-.34-1.39-.34h-.79c-.85,0-1.61-.11-2.27-.33-.66-.22-1.28-.5-1.86-.84s-1.14-.7-1.68-1.08c-.54-.39-1.12-.74-1.75-1.07-.35-.18-.68-.4-1.01-.64-.33-.24-.62-.55-.89-.93-.26-.38-.47-.84-.63-1.39-.15-.55-.23-1.23-.23-2.04,0-.37.03-.7.09-.99.06-.29.13-.58.21-.87.08-.28.15-.57.21-.85.06-.28.09-.59.09-.92,0-.22-.01-.43-.03-.61-.02-.18-.03-.38-.03-.58,0-.37.07-.71.2-1.02.13-.31.27-.63.43-.95.15-.31.29-.64.43-.96.13-.33.2-.68.2-1.07,0-.43-.04-.84-.12-1.24-.08-.4-.17-.8-.27-1.22-.1-.42-.19-.84-.27-1.28-.08-.44-.12-.9-.12-1.39,0-.37.03-.85.09-1.46.06-.61.17-1.2.34-1.77.04-.18.13-.36.27-.52s.23-.33.28-.49c.06-.31.11-.6.14-.87.03-.27.06-.54.09-.81s.07-.52.11-.78c.04-.25.12-.51.24-.78.24-.63.55-1.23.93-1.79.38-.56.65-1.13.81-1.72.16-.53.26-1.08.31-1.65.04-.57.13-1.1.27-1.59.08-.31.19-.69.34-1.15.14-.46.31-.93.5-1.42.19-.49.41-.96.66-1.4.24-.45.51-.81.79-1.1.28-.29.57-.5.85-.64.28-.14.6-.25.95-.33.35-.08.73-.15,1.16-.21.43-.06.93-.16,1.5-.31.53-.12,1.14-.29,1.83-.52.69-.22,1.39-.44,2.11-.66s1.4-.4,2.08-.55c.67-.15,1.25-.23,1.74-.23.71,0,1.4.16,2.08.47s1.32.67,1.94,1.07c.62.4,1.22.78,1.79,1.16.57.38,1.13.63,1.68.75.51.12,1,.2,1.48.23.48.03.94.07,1.37.11s.84.12,1.22.23c.38.11.71.32.99.63.24.24.44.58.58,1.01.14.43.26.9.37,1.42.1.52.19,1.07.28,1.65.08.58.17,1.13.27,1.66.2.88.41,1.67.63,2.4s.34,1.34.38,1.85v.81c0,.4-.01.82-.04,1.28-.03.46-.07.89-.12,1.3-.05.41-.12.7-.2.88-.16.26-.35.44-.56.53s-.47.15-.76.18c-.3.03-.62.06-.98.08-.36.02-.76.08-1.21.18-.37.12-.69.26-.98.43s-.55.32-.81.47c-.25.15-.5.3-.73.43-.23.13-.49.21-.78.23-.12,0-.37-.06-.75-.17-.38-.11-.76-.2-1.14-.26-.49-.02-.97-.05-1.43-.08-.47-.03-.9-.09-1.28-.18s-.7-.24-.93-.44c-.23-.2-.35-.49-.35-.85,0-.29.03-.63.09-1.04s.09-.88.09-1.4c0-.59-.1-1.12-.31-1.6-.2-.48-.3-.92-.3-1.33v-1.34c0-.45-.07-.85-.21-1.21-.14-.36-.39-.65-.75-.87-.36-.22-.89-.34-1.6-.34-.39,0-.81.02-1.28.06-.47.04-.92.09-1.34.15-.43.06-.81.13-1.14.21-.34.08-.55.16-.66.24-.22.2-.37.66-.43,1.36-.06.7-.17,1.54-.34,2.52-.1.59-.26,1.18-.47,1.77-.21.59-.37,1.15-.47,1.68-.1.41-.14.8-.12,1.18.02.38-.02.76-.12,1.14-.04.24-.1.53-.18.87-.08.33-.16.7-.24,1.08-.08.39-.16.78-.23,1.18-.07.4-.11.77-.11,1.11s.07.66.2.93c.13.27.2.62.2,1.02,0,.59-.1,1.22-.29,1.89s-.29,1.33-.29,1.98c0,.29.07.51.2.69.13.17.2.42.2.75,0,.18-.02.37-.06.55-.04.18-.06.38-.06.58,0,.35.14.74.41,1.19.27.45.59.88.95,1.3.36.42.71.78,1.07,1.1.36.32.63.51.81.6.28.16.65.32,1.08.47s.87.28,1.3.38.81.18,1.14.24c.34.06.53.09.6.09.85,0,1.59-.18,2.2-.53.61-.36,1.13-.81,1.57-1.37s.81-1.2,1.11-1.92c.3-.72.58-1.45.82-2.18-1.08.22-2.01.48-2.81.76-.79.29-1.55.43-2.26.43-.49,0-.93-.08-1.31-.24-.26-.08-.54-.32-.84-.72-.29-.4-.56-.85-.81-1.37-.24-.52-.45-1.06-.61-1.62-.16-.56-.24-1.05-.24-1.48s.11-.91.32-1.37c.21-.47.48-.9.79-1.28.32-.39.65-.7,1.01-.93.36-.23.67-.35.93-.35.63,0,1.32.09,2.08.27.75.18,1.61.28,2.56.28,1.12,0,2.26-.05,3.43-.15,1.17-.1,2.29-.15,3.37-.15.29,0,.56.03.82.09.26.06.55.09.85.09.59-.04,1.18-.14,1.77-.31s1.17-.24,1.74-.24c.77,0,1.38.34,1.83,1.02s.67,1.63.67,2.85c0,.3-.03.59-.09.85-.06.26-.16.48-.3.64Z"/>
        <path class="cls-1" d="M305.92,267.79c.04.47.07.94.09,1.42.02.48.03.97.03,1.48,0,1.44-.07,2.9-.21,4.38-.14,1.48-.31,2.91-.49,4.29-.06.45-.14.9-.23,1.36-.09.46-.14.86-.14,1.21,0,.75.07,1.48.21,2.18s.21,1.35.21,1.94c0,.12-.08.4-.24.82s-.42.86-.78,1.31c-.36.45-.81.85-1.37,1.21-.56.36-1.24.53-2.03.53-.92,0-1.53-.26-1.85-.79-.32-.53-.47-1.2-.47-2.01,0-.57.05-1.19.15-1.85.1-.66.21-1.34.33-2.03-.47.1-.93.3-1.39.58-.46.29-.89.55-1.3.79-.9.53-1.79,1.09-2.67,1.68-.89.59-1.85,1.13-2.88,1.62s-2.17.89-3.4,1.22c-1.23.33-2.64.49-4.23.49-.04,0-.2,0-.47.02-.27,0-.6,0-.96-.02s-.75-.07-1.14-.15c-.4-.08-.75-.21-1.05-.4-.45-.45-.88-1-1.3-1.66s-.78-1.31-1.1-1.95c-.32-.64-.56-1.21-.75-1.69-.18-.49-.27-.78-.27-.89-.04-.1-.06-.2-.06-.29v-.29c0-.43.03-.87.09-1.33.06-.46.13-.9.21-1.31s.15-.77.21-1.07c.06-.29.09-.49.09-.6,0-.51-.04-1-.12-1.48-.08-.48-.12-1-.12-1.57,0-.26.01-.54.04-.84.03-.29.1-.61.2-.93,0-.02.05-.15.15-.4.1-.24.22-.51.35-.79.13-.28.26-.56.4-.82.13-.26.23-.42.29-.46.14-.12.34-.22.58-.31s.52-.16.82-.24c.3-.08.62-.16.93-.24s.63-.19.93-.34c.47-.22.89-.51,1.27-.85.38-.35.72-.58,1.02-.7.2-.1.48-.18.84-.24.36-.06.73-.17,1.11-.34.26-.08.59-.2.98-.35.39-.15.8-.29,1.24-.43.44-.13.88-.25,1.33-.37.45-.11.88-.19,1.28-.23.18,0,.41.03.69.09.27.06.61.09.99.09.28,0,.63-.06,1.04-.18.41-.12.89-.18,1.46-.18s1.12.04,1.65.12.94.12,1.22.12c.22,0,.36-.07.41-.2s.08-.29.08-.47c0-.3-.06-.66-.18-1.07-.12-.41-.26-.8-.43-1.19-.16-.39-.32-.72-.46-1.01s-.24-.47-.3-.55c-.31-.39-.65-.68-1.02-.88-.38-.2-.72-.31-1.02-.31-.33,0-.65.04-.96.12-.32.08-.67.12-1.05.12-.29,0-.58-.02-.87-.06-.3-.04-.59-.06-.87-.06-.69,0-1.49.17-2.4.52-.91.35-1.81.74-2.72,1.19-.91.45-1.76.87-2.56,1.27-.8.4-1.45.66-1.94.78-.26.06-.54.12-.82.17-.29.05-.56.08-.82.08-.16,0-.39-.09-.69-.26s-.58-.39-.87-.66c-.29-.26-.53-.56-.75-.9s-.32-.67-.32-.99c0-.49.13-.89.4-1.21.26-.31.59-.58.98-.81.39-.22.81-.42,1.27-.59.46-.17.87-.37,1.24-.6.47-.28,1.02-.62,1.65-1.01s1.17-.75,1.62-1.1c.47-.39.8-.74,1.01-1.05s.45-.55.73-.72c.28-.16.73-.31,1.34-.46s1.18-.29,1.71-.46c.16-.06.39-.15.69-.28.29-.12.6-.23.92-.33.32-.1.62-.19.92-.28.29-.08.52-.12.69-.12h.12c.39.14.82.25,1.31.32.49.07,1,.14,1.54.2.54.06,1.08.13,1.62.2.54.07,1.05.17,1.54.29.16.04.32.13.46.26.14.13.29.23.46.29.75.22,1.38.45,1.89.69.51.23.96.6,1.34,1.1s.75,1.21,1.08,2.14.71,2.18,1.11,3.77c.08.37.23.7.46,1.01.22.3.39.61.49.92.16.51.29,1.12.38,1.85.09.72.16,1.4.2,2.03ZM298.59,275.94c.1-.1.17-.33.2-.69.03-.36.05-.76.05-1.21,0-.53-.01-.96-.03-1.3-.02-.33-.06-.59-.12-.78-.06-.18-.14-.31-.24-.38s-.23-.11-.4-.11c-.12,0-.23.01-.32.03s-.18.04-.26.06c-.08.04-.16.07-.24.09-.33-.04-.63-.06-.9-.06h-.84c-.57,0-1.09.03-1.57.09-.48.06-.95.14-1.4.24-.46.1-.91.21-1.36.34-.45.12-.93.23-1.43.34-.73.18-1.4.3-2.01.37-.61.06-1.14.18-1.59.37-.45.18-.79.47-1.04.87-.24.4-.37,1.01-.37,1.85s.22,1.43.67,1.72,1.1.44,1.95.44c.26,0,.57-.05.92-.14.35-.09.72-.2,1.11-.32.4-.12.8-.25,1.22-.38.42-.13.84-.25,1.27-.35.3-.06.64-.13.99-.2.36-.07.71-.14,1.07-.2.36-.06.69-.12,1.01-.18.32-.06.58-.11.81-.15.14-.02.37-.05.67-.08.31-.03.61-.06.92-.09.3-.03.58-.06.84-.09.25-.03.4-.07.44-.11Z"/>
        <path class="cls-1" d="M350,279.3c-.12.41-.35.74-.69.99-.33.25-.74.45-1.22.6-.48.14-1,.24-1.56.29-.56.05-1.11.08-1.66.08h-.7c-.06,0-.23,0-.52.03s-.57.03-.85.03c-.55,0-.96-.1-1.22-.3-.26-.2-.46-.46-.58-.78s-.21-.66-.26-1.02-.14-.71-.26-1.04c-.04-.1-.13-.28-.26-.52-.13-.24-.28-.5-.44-.78s-.3-.55-.43-.82c-.12-.27-.18-.5-.18-.69,0-.22.06-.48.18-.78s.25-.61.38-.93c.13-.33.26-.65.38-.98.12-.33.18-.62.18-.88,0-.31-.03-.69-.09-1.16-.06-.47-.09-.84-.09-1.13,0-.69.03-1.37.09-2.03s.09-1.26.09-1.79c0-.63-.11-1.14-.32-1.54-.21-.4-.67-.6-1.36-.6-.79,0-1.47.2-2.03.61-.56.41-1.01.87-1.36,1.39-.35.52-.59,1.01-.75,1.48-.15.47-.23.76-.23.88,0,.45.05.94.15,1.46.1.53.22,1.09.37,1.68.14.59.29,1.21.43,1.85.14.64.24,1.3.3,1.97.1,1.14.18,2.33.23,3.56.05,1.23.08,2.34.08,3.31,0,.71-.12,1.39-.37,2.03-.24.64-.69,1.16-1.34,1.54-.25.16-.55.25-.92.26-.37,0-.7.04-1.01.11-.18.04-.46.12-.82.23-.37.11-.77.22-1.22.32-.45.1-.92.19-1.4.27s-.95.12-1.37.12c-.47,0-.82-.04-1.07-.12s-.44-.2-.58-.37c-.14-.16-.27-.36-.38-.6-.11-.23-.27-.5-.47-.81-.18-.26-.37-.49-.55-.69-.18-.19-.35-.38-.5-.55s-.27-.37-.37-.58-.14-.48-.14-.81c0-.47.07-.92.21-1.34.14-.43.21-.9.21-1.4,0-.47-.02-.96-.06-1.48-.04-.52-.09-1.04-.15-1.57-.06-.53-.11-1.05-.15-1.56-.04-.51-.06-.99-.06-1.43,0-.16.01-.39.03-.69.02-.29.03-.64.03-1.02,0-.85-.07-1.5-.21-1.92s-.51-.64-1.1-.64c-.26,0-.55.04-.85.12-.31.08-.61.18-.9.29-.3.11-.57.22-.82.33-.25.11-.45.2-.6.26-.33.14-.67.29-1.04.46s-.7.36-1.01.6c-.31.23-.55.53-.75.88-.19.36-.29.8-.29,1.33,0,.26.04.55.12.85.08.3.18.62.29.95.11.33.21.65.29.98.08.33.12.64.12.95,0,.14-.01.27-.03.4-.02.12-.03.25-.03.37,0,.35.06.68.18.99.12.32.26.62.41.9.15.29.29.56.41.81.12.25.18.48.18.69,0,1.08-.02,2.04-.05,2.88-.03.84-.15,1.56-.37,2.14-.21.58-.54,1.02-.99,1.33-.45.3-1.09.46-1.92.46-.2,0-.52-.04-.95-.11-.43-.07-.88-.16-1.36-.27-.48-.11-.92-.25-1.31-.41-.4-.16-.67-.34-.81-.52-.06-.12-.13-.33-.2-.62s-.14-.64-.21-1.02-.13-.79-.17-1.22c-.04-.43-.06-.84-.06-1.25,0-.47.08-.85.23-1.14s.23-.61.23-.93c0-.24-.02-.53-.05-.87-.03-.33-.06-.69-.09-1.05s-.06-.73-.08-1.1c-.02-.37-.03-.71-.03-1.04,0-.2.04-.54.12-1.01.08-.47.17-1.01.27-1.62.1-.61.19-1.26.27-1.94s.12-1.35.12-2c0-1.26-.04-2.47-.12-3.63s-.12-2.3-.12-3.42c0-.57,0-1.15.02-1.74,0-.59.09-1.13.24-1.62s.41-.89.76-1.19c.36-.31.87-.46,1.54-.46.51,0,.96.06,1.36.17.4.11.73.33,1.01.66.28.33.48.77.61,1.33.13.56.2,1.3.2,2.21,0,.53-.04,1.04-.12,1.54-.08.5-.12,1.07-.12,1.72.86-.12,1.64-.29,2.35-.5.71-.21,1.4-.46,2.08-.73.67-.27,1.35-.56,2.04-.85.69-.29,1.43-.56,2.23-.81.53-.16,1.04-.33,1.54-.49s.98-.24,1.45-.24.85.08,1.21.23c.36.15.68.32.98.49s.56.34.79.49c.23.15.47.23.72.23.26,0,.49-.1.69-.31.19-.2.37-.45.53-.75.16-.29.33-.62.52-.98.18-.36.4-.68.66-.98.25-.29.56-.54.92-.75.36-.2.8-.31,1.33-.31.35,0,.71.01,1.08.03.38.02.74.03,1.08.03.57,0,1.2-.05,1.88-.15s1.35-.22,2-.35c.65-.13,1.25-.25,1.79-.35s.93-.15,1.17-.15.55.07.92.21c.37.14.75.42,1.14.84.4.42.79.99,1.19,1.71.4.72.75,1.67,1.07,2.84.32,1.17.57,2.58.76,4.23.19,1.65.29,3.6.29,5.86,0,.24-.03.47-.08.69s-.11.42-.17.63c-.06.2-.12.41-.17.61-.05.2-.07.4-.05.58,0,.39.08.84.23,1.37s.23.97.23,1.31v.18Z"/>
        <path class="cls-1" d="M380.37,279.54c.04.41.09.78.14,1.13s.08.66.08.95c0,.33-.02.57-.06.73s-.11.3-.2.43c-.09.12-.21.25-.37.4s-.34.36-.56.64c-.24.39-.48.79-.72,1.22-.23.43-.51.81-.82,1.16-.32.35-.68.64-1.1.87s-.92.35-1.51.35c-.37,0-.76-.03-1.18-.08s-.83-.11-1.25-.17c-.42-.06-.82-.12-1.22-.17-.4-.05-.76-.08-1.08-.08-1.4,0-2.82-.03-4.26-.08-1.44-.05-2.79-.23-4.08-.53-.43-.12-.88-.23-1.34-.32s-.94-.2-1.4-.32c-.47-.12-.92-.27-1.34-.44-.43-.17-.79-.38-1.1-.63-.88-.88-1.57-1.83-2.09-2.87-.52-1.04-.93-2.21-1.22-3.51-.29-1.3-.5-2.75-.62-4.33-.12-1.59-.22-3.37-.31-5.34-.04-.69-.11-1.35-.21-1.98s-.15-1.12-.15-1.47c0-.16.08-.42.23-.76.15-.35.26-.67.32-.98.1-.45.15-.89.14-1.33,0-.44,0-.71.05-.81.06-.14.19-.31.38-.5s.41-.4.64-.63c.23-.22.47-.45.7-.69.23-.23.43-.46.6-.69.14-.2.49-.45,1.05-.75s1.26-.62,2.09-.96c.83-.35,1.77-.69,2.81-1.02s2.1-.64,3.19-.92c1.09-.27,2.18-.5,3.27-.67,1.09-.17,2.1-.27,3.04-.29.39,0,.82.07,1.3.21.48.14.96.33,1.43.56.48.23.94.5,1.39.81.45.31.82.61,1.13.92.16.16.32.43.46.81.14.38.31.69.49.93.45.57.76,1,.93,1.28.17.29.28.54.34.76.05.22.07.47.04.73s0,.67.06,1.22c.04.43.07.78.09,1.07.02.29.03.55.03.79v1.46c0,.59-.15,1.07-.46,1.43-.3.37-.72.7-1.25,1.01-.53.3-1.17.6-1.91.88-.74.29-1.54.63-2.4,1.04-.71.35-1.48.59-2.29.73-.81.14-1.57.21-2.26.21h-.24c-.06,0-.14-.02-.24-.06-.14-.02-.39.02-.73.12-.35.1-.74.22-1.19.35-.45.13-.93.25-1.45.37-.52.11-1.02.17-1.51.17-.33,0-.64.05-.93.14s-.55.21-.78.35c-.22.14-.4.29-.53.43-.13.14-.2.27-.2.4,0,.71.13,1.28.38,1.71.25.43.53.75.84.98.37.26.77.45,1.22.55.51.22,1,.37,1.46.44.47.07.94.11,1.4.11.77,0,1.58-.06,2.43-.18.84-.12,1.81-.18,2.88-.18.51,0,.94.06,1.3.18.36.12.74.18,1.14.18.43,0,.85-.04,1.28-.12.43-.08.83-.17,1.22-.27s.76-.19,1.11-.28c.36-.08.69-.12.99-.12.79,0,1.37.27,1.72.81.36.54.62,1.37.78,2.49ZM368.56,265.5c.04-.1.07-.21.09-.34s.03-.24.03-.37c0-.61-.06-1.16-.17-1.63-.11-.48-.24-.89-.4-1.22-.15-.34-.32-.59-.5-.76-.18-.17-.35-.26-.49-.26-.39,0-.97.08-1.74.23-.77.15-1.56.34-2.35.56s-1.51.47-2.15.73c-.64.26-1.03.51-1.17.73-.1.16-.17.4-.21.72s-.06.68-.06,1.08c0,.86.06,1.52.17,1.98.11.47.31.7.6.7.18,0,.39-.03.61-.09.22-.06.44-.13.66-.2s.41-.14.58-.2c.17-.06.31-.1.41-.12.45-.08,1-.14,1.65-.18.65-.04,1.29-.11,1.91-.2.62-.09,1.17-.22,1.65-.4.48-.17.78-.43.9-.78Z"/>
        <path class="cls-1" d="M409.28,281.62c-.08.18-.2.36-.37.52-.16.16-.34.33-.53.49-.19.16-.4.33-.61.5s-.42.38-.63.63c-.35.41-.62.85-.84,1.34s-.45.88-.72,1.16c0,.02-.1.11-.29.26-.19.15-.41.31-.64.47-.23.16-.44.32-.63.46-.18.14-.25.2-.21.18-.18.1-.38.16-.59.17-.21.01-.45.02-.72.02-.49,0-1.02-.03-1.59-.09-.57-.06-1.14-.09-1.71-.09s-1.14.09-1.71.28c-.57.18-1.15.27-1.74.27-.51,0-1.01,0-1.5.03s-.99.03-1.5.03c-1.18,0-2.27-.07-3.28-.21-1.01-.14-1.93-.42-2.76-.84-.83-.42-1.58-.99-2.24-1.72-.66-.73-1.22-1.68-1.66-2.84-.1-.24-.17-.51-.2-.81s-.05-.61-.06-.93c0-.33-.02-.66-.03-.99-.01-.34-.04-.66-.08-.96-.16-.81-.32-1.52-.47-2.11-.15-.59-.23-1.14-.23-1.65,0-.55.14-1.05.43-1.5.28-.45.68-.83,1.17-1.14s1.08-.56,1.74-.73c.66-.17,1.37-.26,2.12-.26.41,0,.75.01,1.02.03.28.02.55.08.82.17.28.09.57.24.89.46.32.21.72.51,1.21.9.18.2.42.39.72.56s.49.32.59.44c.14.18.25.4.32.64.07.24.15.5.23.76.08.26.18.51.31.73.12.22.29.41.52.55.2.22.43.39.67.49.24.1.47.21.69.32.21.11.39.26.53.44.14.18.21.46.21.82,0,.18-.01.36-.03.52-.02.16-.03.33-.03.49,0,.33.08.61.24.85s.38.45.64.63c.26.17.55.3.85.38s.6.12.88.12c.37,0,.74-.06,1.11-.18.38-.12.73-.31,1.05-.56.33-.25.59-.57.79-.95.2-.38.31-.81.31-1.3,0-.39-.08-.82-.23-1.31-.15-.49-.23-1.03-.23-1.62,0-.29,0-.58.03-.9s.03-.61.03-.87c0-.47-.2-.87-.6-1.21s-.92-.64-1.57-.9c-.65-.26-1.39-.5-2.21-.7-.82-.2-1.66-.41-2.5-.61-.84-.2-1.66-.42-2.46-.64s-1.49-.49-2.08-.79c-.33-.16-.65-.4-.96-.72-.32-.31-.65-.6-.99-.87-.43-.33-.83-.63-1.22-.9-.39-.27-.73-.6-1.02-.99s-.52-.86-.69-1.4c-.16-.55-.24-1.26-.24-2.14,0-1.59.21-2.84.64-3.77.43-.93,1.04-1.64,1.83-2.15s1.76-.87,2.9-1.07,2.41-.38,3.82-.52c.63-.06,1.31-.13,2.03-.2s1.44-.11,2.15-.11c.51,0,1.12.1,1.83.3.71.2,1.43.51,2.15.92.72.41,1.41.92,2.06,1.54s1.16,1.35,1.53,2.18c.1.24.2.45.3.62.1.17.19.34.26.49.07.15.13.31.17.46.04.15.06.34.06.57-.08.49-.21.88-.38,1.17-.17.29-.4.51-.69.66s-.62.23-1.02.27c-.4.04-.86.06-1.39.06h-.59c-.17,0-.29-.02-.35-.06-.43-.08-.9-.28-1.4-.61-.51-.33-1.03-.67-1.56-1.04-.53-.37-1.04-.71-1.54-1.02-.5-.32-.93-.5-1.3-.56-.59-.12-1.12-.18-1.59-.18-.94,0-1.68.19-2.23.57s-.82.83-.82,1.36c0,.33.17.68.5,1.07s.72.75,1.14,1.08c.43.34.84.63,1.25.87.41.24.67.39.79.43.16.06.39.08.69.06.29-.02.57.02.81.12.18.06.35.16.49.29.14.13.32.22.52.26.51.16,1.05.27,1.62.32.57.05,1.11.16,1.62.32,1.55.47,2.79.97,3.72,1.5.94.53,1.68,1.21,2.23,2.03.55.82.96,1.85,1.24,3.07.27,1.22.52,2.75.75,4.58.06.53.15.97.27,1.33.12.36.18.71.18,1.05,0,.33-.08.68-.24,1.07Z"/>
      </g>
    </g>
  </g>
</svg>